M48
; DRILL file {KiCad 7.0.5} date Thu Oct  3 13:21:10 2024
; FORMAT={-:-/ absolute / metric / decimal}
; #@! TF.CreationDate,2024-10-03T13:21:10+03:00
; #@! TF.GenerationSoftware,Kicad,Pcbnew,7.0.5
; #@! TF.FileFunction,Plated,1,2,PTH
FMAT,2
METRIC
; #@! TA.AperFunction,Plated,PTH,ComponentDrill
T1C0.200
; #@! TA.AperFunction,Plated,PTH,ViaDrill
T2C0.300
; #@! TA.AperFunction,Plated,PTH,ViaDrill
T3C0.400
; #@! TA.AperFunction,Plated,PTH,ComponentDrill
T4C0.500
; #@! TA.AperFunction,Plated,PTH,ComponentDrill
T5C0.550
; #@! TA.AperFunction,Plated,PTH,ComponentDrill
T6C0.800
; #@! TA.AperFunction,Plated,PTH,ComponentDrill
T7C1.000
; #@! TA.AperFunction,Plated,PTH,ComponentDrill
T8C1.020
; #@! TA.AperFunction,Plated,PTH,ComponentDrill
T9C1.400
; #@! TA.AperFunction,Plated,PTH,ComponentDrill
T10C3.200
%
G90
G05
T1
X218.915Y-117.805
X218.915Y-119.705
X220.265Y-117.805
X220.265Y-119.705
X221.615Y-117.805
X221.615Y-119.705
T2
X36.793Y-56.539
X36.793Y-59.079
X36.793Y-61.619
X36.793Y-87.019
X36.793Y-89.559
X36.793Y-92.099
X36.793Y-94.639
X39.333Y-53.999
X39.333Y-56.539
X39.333Y-61.619
X39.333Y-64.159
X39.333Y-87.019
X39.333Y-92.099
X39.333Y-94.639
X41.873Y-53.999
X41.873Y-87.019
X41.873Y-92.099
X41.873Y-97.179
X41.873Y-99.719
X41.873Y-102.259
X41.873Y-104.799
X41.873Y-107.339
X41.873Y-112.419
X41.873Y-114.959
X41.873Y-117.499
X41.873Y-120.039
X41.873Y-122.579
X41.873Y-125.119
X41.873Y-127.659
X41.873Y-130.199
X42.875Y-66.573
X43.18Y-70.358
X43.18Y-71.374
X43.18Y-72.39
X43.18Y-73.406
X43.18Y-74.422
X43.18Y-75.438
X43.18Y-76.454
X43.18Y-77.47
X43.18Y-78.486
X43.18Y-79.502
X43.18Y-80.518
X43.18Y-81.534
X43.18Y-82.55
X44.196Y-70.358
X44.196Y-71.374
X44.196Y-72.39
X44.196Y-73.406
X44.196Y-74.422
X44.196Y-75.438
X44.196Y-76.454
X44.196Y-77.47
X44.196Y-78.486
X44.196Y-79.502
X44.196Y-80.518
X44.196Y-81.534
X44.196Y-82.55
X44.413Y-53.999
X44.413Y-61.619
X44.413Y-114.959
X44.413Y-117.499
X44.413Y-120.039
X44.413Y-122.579
X44.413Y-125.119
X44.413Y-130.199
X44.958Y-88.392
X45.212Y-70.358
X45.212Y-71.374
X45.212Y-72.39
X45.212Y-73.406
X45.212Y-74.422
X45.212Y-75.438
X45.212Y-76.454
X45.212Y-77.47
X45.212Y-78.486
X45.212Y-79.502
X45.212Y-80.518
X45.212Y-81.534
X45.212Y-82.55
X46.228Y-70.358
X46.228Y-71.374
X46.228Y-72.39
X46.228Y-73.406
X46.228Y-74.422
X46.228Y-75.438
X46.228Y-76.454
X46.228Y-77.47
X46.228Y-78.486
X46.228Y-79.502
X46.228Y-80.518
X46.228Y-81.534
X46.228Y-82.55
X46.953Y-53.999
X46.953Y-56.539
X46.953Y-59.079
X46.953Y-61.619
X46.953Y-64.159
X46.953Y-94.639
X46.953Y-97.179
X46.953Y-99.719
X46.953Y-102.259
X46.953Y-104.799
X46.953Y-107.339
X46.953Y-114.959
X46.953Y-120.039
X46.953Y-122.579
X46.953Y-125.119
X46.953Y-130.199
X47.244Y-70.358
X47.244Y-71.374
X47.244Y-72.39
X47.244Y-73.406
X47.244Y-74.422
X47.244Y-75.438
X47.244Y-76.454
X47.244Y-77.47
X47.244Y-78.486
X47.244Y-79.502
X47.244Y-80.518
X47.244Y-81.534
X47.244Y-82.55
X47.498Y-86.106
X47.625Y-111.227
X47.676Y-114.54
X47.981Y-112.7
X48.387Y-131.978
X49.493Y-53.999
X49.493Y-56.539
X49.493Y-59.079
X49.493Y-61.619
X49.493Y-64.159
X49.493Y-97.179
X49.493Y-99.719
X49.493Y-107.339
X49.493Y-117.499
X49.493Y-122.579
X49.493Y-125.119
X49.493Y-135.279
X50.927Y-131.978
X51.486Y-114.54
X52.033Y-53.999
X52.033Y-56.539
X52.033Y-59.079
X52.033Y-61.619
X52.033Y-89.559
X52.033Y-92.099
X52.033Y-94.639
X52.033Y-97.179
X52.033Y-99.719
X52.033Y-102.259
X52.033Y-122.579
X52.033Y-135.279
X53.95Y-109.474
X54.573Y-53.999
X54.573Y-56.539
X54.573Y-59.079
X54.573Y-104.799
X54.573Y-114.959
X54.573Y-125.119
X54.573Y-132.739
X54.573Y-135.279
X55.626Y-66.548
X55.88Y-70.358
X55.88Y-71.374
X55.88Y-72.39
X55.88Y-73.406
X55.88Y-74.422
X55.88Y-75.438
X55.88Y-76.454
X55.88Y-77.47
X55.88Y-78.486
X55.88Y-79.502
X55.88Y-80.518
X55.88Y-81.534
X55.88Y-82.55
X56.896Y-70.358
X56.896Y-71.374
X56.896Y-72.39
X56.896Y-73.406
X56.896Y-74.422
X56.896Y-75.438
X56.896Y-76.454
X56.896Y-77.47
X56.896Y-78.486
X56.896Y-79.502
X56.896Y-80.518
X56.896Y-81.534
X56.896Y-82.55
X57.113Y-53.999
X57.113Y-56.539
X57.113Y-59.079
X57.113Y-94.639
X57.113Y-97.179
X57.113Y-99.719
X57.113Y-102.259
X57.113Y-107.339
X57.113Y-114.959
X57.113Y-117.499
X57.113Y-122.579
X57.113Y-125.119
X57.658Y-88.392
X57.912Y-70.358
X57.912Y-71.374
X57.912Y-72.39
X57.912Y-73.406
X57.912Y-74.422
X57.912Y-75.438
X57.912Y-76.454
X57.912Y-77.47
X57.912Y-78.486
X57.912Y-79.502
X57.912Y-80.518
X57.912Y-81.534
X57.912Y-82.55
X58.928Y-70.358
X58.928Y-71.374
X58.928Y-72.39
X58.928Y-73.406
X58.928Y-74.422
X58.928Y-75.438
X58.928Y-76.454
X58.928Y-77.47
X58.928Y-78.486
X58.928Y-79.502
X58.928Y-80.518
X58.928Y-81.534
X58.928Y-82.55
X59.614Y-118.11
X59.653Y-53.999
X59.653Y-56.539
X59.653Y-92.099
X59.653Y-94.639
X59.653Y-114.959
X59.653Y-122.579
X59.653Y-125.119
X59.653Y-132.739
X59.653Y-135.279
X59.944Y-70.358
X59.944Y-71.374
X59.944Y-72.39
X59.944Y-73.406
X59.944Y-74.422
X59.944Y-75.438
X59.944Y-76.454
X59.944Y-77.47
X59.944Y-78.486
X59.944Y-79.502
X59.944Y-80.518
X59.944Y-81.534
X59.944Y-82.55
X60.168Y-85.852
X60.606Y-115.62
X62.193Y-53.999
X62.193Y-64.159
X62.193Y-107.339
X62.193Y-132.739
X62.193Y-135.279
X62.509Y-124.028
X62.687Y-120.167
X62.763Y-122.682
X63.094Y-110.668
X63.856Y-111.633
X64.733Y-53.999
X64.733Y-89.559
X64.733Y-92.099
X64.733Y-94.639
X64.733Y-97.179
X64.733Y-99.719
X64.733Y-102.259
X64.733Y-104.799
X64.733Y-114.959
X64.733Y-120.039
X64.733Y-122.579
X64.733Y-125.119
X64.733Y-127.659
X66.142Y-129.413
X66.243Y-120.091
X67.273Y-53.999
X67.273Y-102.259
X67.273Y-104.799
X67.273Y-107.339
X67.273Y-120.039
X67.273Y-122.579
X68.072Y-66.548
X68.377Y-113.411
X68.58Y-70.358
X68.58Y-71.374
X68.58Y-72.39
X68.58Y-73.406
X68.58Y-74.422
X68.58Y-75.438
X68.58Y-76.454
X68.58Y-77.47
X68.58Y-78.486
X68.58Y-79.502
X68.58Y-80.518
X68.58Y-81.534
X68.58Y-82.55
X69.596Y-70.358
X69.596Y-71.374
X69.596Y-72.39
X69.596Y-73.406
X69.596Y-74.422
X69.596Y-75.438
X69.596Y-76.454
X69.596Y-77.47
X69.596Y-78.486
X69.596Y-79.502
X69.596Y-80.518
X69.596Y-81.534
X69.596Y-82.55
X69.813Y-53.999
X69.813Y-94.639
X69.813Y-97.179
X69.813Y-99.719
X69.813Y-104.799
X69.813Y-107.339
X69.813Y-122.579
X69.813Y-125.119
X69.813Y-130.199
X69.813Y-135.279
X70.333Y-113.284
X70.358Y-88.392
X70.593Y-75.427
X70.612Y-70.358
X70.612Y-71.374
X70.612Y-72.39
X70.612Y-73.406
X70.612Y-74.422
X70.612Y-76.454
X70.612Y-77.47
X70.612Y-78.486
X70.612Y-79.502
X70.612Y-80.518
X70.612Y-81.534
X70.612Y-82.55
X71.628Y-70.358
X71.628Y-71.374
X71.628Y-72.39
X71.628Y-73.406
X71.628Y-74.422
X71.628Y-75.438
X71.628Y-76.454
X71.628Y-77.47
X71.628Y-78.486
X71.628Y-79.502
X71.628Y-80.518
X71.628Y-81.534
X71.628Y-82.55
X72.353Y-53.999
X72.353Y-92.099
X72.353Y-94.639
X72.353Y-97.179
X72.353Y-99.719
X72.353Y-102.259
X72.353Y-107.339
X72.353Y-120.039
X72.353Y-122.579
X72.353Y-127.659
X72.353Y-135.279
X72.644Y-70.358
X72.644Y-71.374
X72.644Y-72.39
X72.644Y-73.406
X72.644Y-74.422
X72.644Y-75.438
X72.644Y-76.454
X72.644Y-77.47
X72.644Y-78.486
X72.644Y-79.502
X72.644Y-80.518
X72.644Y-81.534
X72.644Y-82.55
X72.898Y-86.36
X74.295Y-116.942
X74.524Y-129.464
X74.6Y-114.821
X74.625Y-113.335
X74.893Y-53.999
X74.893Y-87.019
X74.893Y-104.799
X74.893Y-120.039
X74.893Y-122.579
X74.893Y-125.119
X74.893Y-135.279
X75.955Y-118.669
X76.505Y-118.669
X77.433Y-53.999
X77.433Y-89.559
X77.433Y-92.099
X77.433Y-94.639
X77.433Y-97.179
X77.433Y-99.719
X77.433Y-102.259
X77.433Y-107.339
X77.433Y-114.959
X77.433Y-117.499
X77.433Y-120.039
X77.433Y-122.579
X77.433Y-130.199
X77.433Y-132.739
X77.433Y-135.279
X78.994Y-88.138
X79.973Y-53.999
X79.973Y-104.799
X79.973Y-114.959
X79.973Y-117.499
X79.973Y-120.039
X79.973Y-127.659
X79.973Y-130.199
X79.973Y-135.279
X80.772Y-89.916
X81.026Y-66.04
X81.533Y-81.527
X81.534Y-71.374
X81.534Y-72.39
X81.534Y-73.406
X81.534Y-74.422
X81.534Y-75.438
X81.534Y-76.454
X81.534Y-77.47
X81.534Y-78.486
X81.534Y-79.502
X81.534Y-80.518
X81.534Y-82.55
X82.513Y-53.999
X82.513Y-94.639
X82.513Y-97.179
X82.513Y-99.719
X82.513Y-102.259
X82.513Y-114.959
X82.513Y-117.499
X82.513Y-120.039
X82.513Y-127.659
X82.513Y-130.199
X82.55Y-71.374
X82.55Y-72.39
X82.55Y-73.406
X82.55Y-74.422
X82.55Y-75.438
X82.55Y-76.454
X82.55Y-77.47
X82.55Y-78.486
X82.55Y-79.502
X82.55Y-80.518
X82.55Y-81.534
X82.55Y-82.55
X83.058Y-88.392
X83.566Y-71.374
X83.566Y-72.39
X83.566Y-73.406
X83.566Y-74.422
X83.566Y-75.438
X83.566Y-76.454
X83.566Y-77.47
X83.566Y-78.486
X83.566Y-79.502
X83.566Y-80.518
X83.566Y-81.534
X83.566Y-82.55
X84.582Y-71.374
X84.582Y-72.39
X84.582Y-73.406
X84.582Y-74.422
X84.582Y-75.438
X84.582Y-76.454
X84.582Y-77.47
X84.582Y-78.486
X84.582Y-79.502
X84.582Y-80.518
X84.582Y-81.534
X84.582Y-82.55
X85.039Y-129.235
X85.053Y-53.999
X85.053Y-92.099
X85.053Y-94.639
X85.053Y-97.179
X85.053Y-99.719
X85.053Y-102.259
X85.053Y-104.799
X85.053Y-120.039
X85.053Y-130.199
X85.053Y-132.739
X85.053Y-135.279
X85.598Y-71.374
X85.598Y-72.39
X85.598Y-73.406
X85.598Y-74.422
X85.598Y-75.438
X85.598Y-76.454
X85.598Y-77.47
X85.598Y-78.486
X85.598Y-79.502
X85.598Y-80.518
X85.598Y-81.534
X85.598Y-82.55
X85.852Y-86.36
X85.877Y-116.916
X86.258Y-129.845
X87.173Y-124.968
X87.593Y-53.999
X87.593Y-114.959
X87.593Y-117.499
X87.593Y-120.039
X87.593Y-135.279
X87.884Y-124.917
X88.392Y-123.977
X89.383Y-122.606
X90.018Y-120.371
X90.133Y-53.999
X90.133Y-87.019
X90.133Y-89.559
X90.133Y-92.099
X90.133Y-94.639
X90.133Y-97.179
X90.133Y-99.719
X90.133Y-102.259
X90.133Y-132.739
X90.133Y-135.279
X91.796Y-133.147
X92.673Y-53.999
X92.673Y-102.259
X92.673Y-104.799
X92.673Y-135.279
X93.65Y-129.184
X93.726Y-66.548
X94.234Y-70.358
X94.234Y-71.374
X94.234Y-72.39
X94.234Y-73.406
X94.234Y-74.422
X94.234Y-75.438
X94.234Y-76.454
X94.234Y-77.47
X94.234Y-78.486
X94.234Y-79.502
X94.234Y-80.518
X94.234Y-81.534
X94.234Y-82.55
X95.213Y-94.639
X95.213Y-97.179
X95.213Y-99.719
X95.213Y-104.799
X95.213Y-120.039
X95.213Y-125.119
X95.213Y-132.739
X95.213Y-135.279
X95.25Y-70.358
X95.25Y-71.374
X95.25Y-72.39
X95.25Y-73.406
X95.25Y-74.422
X95.25Y-75.438
X95.25Y-76.454
X95.25Y-77.47
X95.25Y-78.486
X95.25Y-79.502
X95.25Y-80.518
X95.25Y-81.534
X95.25Y-82.55
X95.758Y-88.392
X96.266Y-70.358
X96.266Y-71.374
X96.266Y-72.39
X96.266Y-73.406
X96.266Y-74.422
X96.266Y-75.438
X96.266Y-76.454
X96.266Y-77.47
X96.266Y-78.486
X96.266Y-79.502
X96.266Y-80.518
X96.266Y-81.534
X96.266Y-82.55
X97.282Y-71.374
X97.282Y-72.39
X97.282Y-73.406
X97.282Y-74.422
X97.282Y-75.438
X97.282Y-76.454
X97.282Y-77.47
X97.282Y-78.486
X97.282Y-79.502
X97.282Y-80.518
X97.282Y-81.534
X97.282Y-82.55
X97.316Y-70.343
X97.753Y-59.079
X97.753Y-92.099
X97.753Y-94.639
X97.753Y-97.179
X97.753Y-99.719
X97.753Y-102.259
X97.753Y-114.959
X97.753Y-120.039
X97.753Y-122.579
X97.753Y-125.119
X97.753Y-127.659
X98.298Y-70.358
X98.298Y-71.374
X98.298Y-72.39
X98.298Y-73.406
X98.298Y-74.422
X98.298Y-75.438
X98.298Y-76.454
X98.298Y-77.47
X98.298Y-78.486
X98.298Y-79.502
X98.298Y-80.518
X98.298Y-81.534
X98.298Y-82.55
X98.298Y-86.106
X100.0Y-125.0
X100.293Y-59.079
X100.293Y-102.259
X100.293Y-122.579
X100.293Y-127.659
X100.293Y-130.199
X100.293Y-135.279
X102.833Y-87.019
X102.833Y-89.559
X102.833Y-92.099
X102.833Y-94.639
X102.833Y-97.179
X102.833Y-99.719
X102.833Y-114.959
X102.833Y-120.039
X102.833Y-122.579
X102.833Y-125.119
X102.833Y-127.659
X102.833Y-130.199
X102.833Y-135.279
X105.373Y-99.719
X105.373Y-102.259
X105.373Y-114.959
X105.373Y-120.039
X105.373Y-122.579
X105.373Y-125.119
X105.373Y-127.659
X105.373Y-130.199
X105.373Y-135.279
X106.68Y-72.39
X106.68Y-73.406
X106.68Y-74.422
X106.68Y-75.438
X106.68Y-76.454
X106.68Y-77.47
X106.68Y-78.486
X106.68Y-79.502
X106.68Y-80.518
X106.68Y-81.534
X106.68Y-82.55
X107.913Y-94.639
X107.913Y-97.179
X107.913Y-99.719
X107.913Y-102.259
X107.913Y-114.959
X107.913Y-120.039
X107.913Y-122.579
X107.913Y-125.119
X107.913Y-127.659
X107.913Y-130.199
X107.95Y-72.39
X107.95Y-73.406
X107.95Y-74.422
X107.95Y-75.438
X107.95Y-76.454
X107.95Y-77.47
X107.95Y-78.486
X107.95Y-79.502
X107.95Y-80.518
X107.95Y-81.534
X107.95Y-82.55
X108.458Y-88.392
X108.966Y-72.39
X108.966Y-73.406
X108.966Y-74.422
X108.966Y-75.438
X108.966Y-76.454
X108.966Y-77.47
X108.966Y-78.486
X108.966Y-79.502
X108.966Y-80.518
X108.966Y-81.534
X108.966Y-82.55
X109.982Y-72.39
X109.982Y-73.406
X109.982Y-74.422
X109.982Y-75.438
X109.982Y-76.454
X109.982Y-77.47
X109.982Y-78.486
X109.982Y-79.502
X109.982Y-80.518
X109.982Y-81.534
X109.982Y-82.55
X110.453Y-92.099
X110.453Y-94.639
X110.453Y-97.179
X110.453Y-99.719
X110.453Y-102.259
X110.453Y-114.959
X110.453Y-120.039
X110.453Y-122.579
X110.453Y-125.119
X110.453Y-127.659
X110.453Y-130.199
X110.998Y-72.39
X110.998Y-73.406
X110.998Y-74.422
X110.998Y-75.438
X110.998Y-76.454
X110.998Y-77.47
X110.998Y-78.486
X110.998Y-79.502
X110.998Y-80.518
X110.998Y-81.534
X110.998Y-82.55
X110.998Y-86.106
X112.993Y-53.999
X112.993Y-87.019
X112.993Y-102.259
X112.993Y-114.959
X112.993Y-120.039
X112.993Y-122.579
X112.993Y-125.119
X113.798Y-119.146
X115.533Y-53.999
X115.533Y-87.019
X115.533Y-89.559
X115.533Y-92.099
X115.533Y-94.639
X115.533Y-97.179
X115.533Y-99.719
X115.533Y-114.959
X115.533Y-120.039
X115.533Y-125.119
X118.072Y-122.169
X118.073Y-53.999
X118.073Y-102.259
X118.073Y-114.959
X118.504Y-124.024
X119.38Y-77.216
X119.38Y-78.232
X119.38Y-79.248
X119.38Y-80.264
X119.38Y-81.28
X119.38Y-82.296
X119.716Y-122.245
X119.723Y-131.542
X120.129Y-120.315
X120.396Y-76.2
X120.396Y-77.216
X120.396Y-78.232
X120.396Y-79.248
X120.396Y-80.264
X120.396Y-81.28
X120.396Y-82.296
X120.613Y-53.999
X120.613Y-94.639
X120.613Y-97.179
X120.613Y-99.719
X120.613Y-114.959
X120.613Y-122.579
X120.613Y-125.119
X121.158Y-88.392
X121.412Y-75.184
X121.412Y-76.2
X121.412Y-77.216
X121.412Y-78.232
X121.412Y-79.248
X121.412Y-80.264
X121.412Y-81.28
X121.412Y-82.296
X122.009Y-112.543
X122.06Y-122.449
X122.11Y-120.671
X122.428Y-74.168
X122.428Y-75.184
X122.428Y-76.2
X122.428Y-77.216
X122.428Y-78.232
X122.428Y-79.248
X122.428Y-80.264
X122.428Y-81.28
X122.428Y-82.296
X122.695Y-126.411
X123.044Y-127.3
X123.153Y-53.999
X123.153Y-92.099
X123.153Y-94.639
X123.153Y-97.179
X123.153Y-99.719
X123.153Y-102.259
X123.153Y-114.959
X123.153Y-120.039
X123.153Y-122.579
X123.444Y-73.152
X123.444Y-74.168
X123.444Y-75.184
X123.444Y-76.2
X123.444Y-77.216
X123.444Y-78.232
X123.444Y-79.248
X123.444Y-80.264
X123.444Y-81.28
X123.444Y-82.296
X123.444Y-86.106
X124.193Y-121.585
X124.314Y-123.718
X124.727Y-126.411
X124.981Y-130.983
X125.584Y-120.874
X125.693Y-53.999
X125.693Y-87.019
X125.693Y-102.259
X125.693Y-114.959
X125.693Y-125.119
X128.233Y-53.999
X128.233Y-89.559
X128.233Y-92.099
X128.233Y-94.639
X128.233Y-97.179
X128.233Y-114.959
X128.233Y-132.739
X128.765Y-124.303
X130.569Y-126.157
X130.569Y-130.247
X130.773Y-53.999
X130.773Y-99.719
X130.773Y-122.579
X130.773Y-132.739
X130.823Y-131.923
X131.508Y-113.508
X131.585Y-112.771
X131.826Y-66.802
X131.839Y-114.727
X131.839Y-116.251
X131.839Y-117.775
X131.839Y-119.299
X132.318Y-80.511
X132.334Y-70.358
X132.334Y-71.374
X132.334Y-72.39
X132.334Y-73.406
X132.334Y-74.422
X132.334Y-75.438
X132.334Y-76.454
X132.334Y-77.47
X132.334Y-78.486
X132.334Y-79.502
X132.334Y-81.534
X132.334Y-82.55
X132.67Y-125.181
X132.746Y-128.621
X133.077Y-108.631
X133.077Y-112.644
X133.127Y-109.647
X133.153Y-110.638
X133.229Y-111.654
X133.313Y-53.999
X133.313Y-94.639
X133.313Y-97.179
X133.313Y-102.259
X133.313Y-132.739
X133.337Y-120.798
X133.35Y-70.358
X133.35Y-71.374
X133.35Y-72.39
X133.35Y-73.406
X133.35Y-74.422
X133.35Y-75.438
X133.35Y-76.454
X133.35Y-77.47
X133.35Y-78.486
X133.35Y-79.502
X133.35Y-80.518
X133.35Y-81.534
X133.35Y-82.55
X133.858Y-88.392
X134.366Y-70.358
X134.366Y-71.374
X134.366Y-72.39
X134.366Y-73.406
X134.366Y-74.422
X134.366Y-75.438
X134.366Y-76.454
X134.366Y-77.47
X134.366Y-78.486
X134.366Y-79.502
X134.366Y-80.518
X134.366Y-81.534
X134.366Y-82.55
X134.855Y-106.142
X135.032Y-128.621
X135.185Y-125.181
X135.382Y-70.358
X135.382Y-71.374
X135.382Y-72.39
X135.382Y-73.406
X135.382Y-74.422
X135.382Y-75.438
X135.382Y-76.454
X135.382Y-77.47
X135.382Y-78.486
X135.382Y-79.502
X135.382Y-80.518
X135.382Y-81.534
X135.382Y-82.55
X135.853Y-53.999
X135.853Y-92.099
X135.853Y-94.639
X135.853Y-97.179
X135.853Y-99.719
X135.853Y-102.259
X135.853Y-107.339
X135.853Y-132.739
X136.157Y-119.553
X136.398Y-70.358
X136.398Y-71.374
X136.398Y-72.39
X136.398Y-73.406
X136.398Y-74.422
X136.398Y-75.438
X136.398Y-76.454
X136.398Y-77.47
X136.398Y-78.486
X136.398Y-79.502
X136.398Y-80.518
X136.398Y-81.534
X136.398Y-82.55
X136.398Y-86.106
X137.369Y-104.567
X137.427Y-113.178
X137.452Y-114.118
X137.477Y-110.308
X137.757Y-122.449
X137.776Y-125.13
X137.801Y-103.577
X137.826Y-128.621
X138.157Y-102.205
X138.393Y-87.019
X138.393Y-107.339
X138.393Y-109.879
X138.393Y-112.419
X138.393Y-132.739
X139.205Y-124.379
X139.433Y-113.991
X140.366Y-128.621
X140.398Y-122.449
X140.443Y-125.13
X140.729Y-121.331
X140.933Y-89.559
X140.933Y-92.099
X140.933Y-94.639
X140.933Y-97.179
X140.933Y-107.339
X140.933Y-109.879
X140.933Y-112.419
X140.933Y-132.739
X141.001Y-118.08
X141.205Y-102.256
X141.459Y-117.648
X141.789Y-125.104
X141.916Y-103.018
X142.338Y-125.104
X142.5Y-114.168
X142.525Y-117.724
X142.906Y-103.5
X142.906Y-125.13
X142.932Y-118.105
X143.473Y-109.879
X143.473Y-112.419
X143.523Y-124.125
X144.024Y-103.907
X144.532Y-111.628
X144.78Y-70.358
X144.78Y-71.374
X144.78Y-72.39
X144.78Y-73.406
X144.78Y-74.422
X144.78Y-75.438
X144.78Y-76.454
X144.78Y-77.47
X144.78Y-78.486
X144.78Y-79.502
X144.78Y-80.518
X144.78Y-81.534
X144.78Y-82.55
X144.938Y-104.491
X145.301Y-118.055
X145.301Y-122.347
X145.555Y-108.446
X145.796Y-70.358
X145.796Y-71.374
X145.796Y-72.39
X145.796Y-73.406
X145.796Y-74.422
X145.796Y-75.438
X145.796Y-76.454
X145.796Y-77.47
X145.796Y-78.486
X145.796Y-79.502
X145.796Y-80.518
X145.796Y-81.534
X145.796Y-82.55
X145.929Y-104.923
X146.013Y-94.639
X146.013Y-127.659
X146.013Y-130.199
X146.013Y-132.739
X146.056Y-111.628
X146.304Y-88.392
X146.812Y-70.358
X146.812Y-71.374
X146.812Y-72.39
X146.812Y-73.406
X146.812Y-74.422
X146.812Y-75.438
X146.812Y-76.454
X146.812Y-77.47
X146.812Y-78.486
X146.812Y-79.502
X146.812Y-80.518
X146.812Y-81.534
X146.812Y-82.55
X147.828Y-70.358
X147.828Y-71.374
X147.828Y-72.39
X147.828Y-73.406
X147.828Y-74.422
X147.828Y-75.438
X147.828Y-76.454
X147.828Y-77.47
X147.828Y-78.486
X147.828Y-79.502
X147.828Y-80.518
X147.828Y-81.534
X147.828Y-82.55
X148.553Y-92.099
X148.553Y-102.259
X148.553Y-120.039
X148.553Y-132.739
X148.844Y-70.358
X148.844Y-71.374
X148.844Y-72.39
X148.844Y-73.406
X148.844Y-74.422
X148.844Y-75.438
X148.844Y-76.454
X148.844Y-77.47
X148.844Y-78.486
X148.844Y-79.502
X148.844Y-80.518
X148.844Y-81.534
X148.844Y-82.55
X149.002Y-128.367
X149.022Y-121.539
X149.079Y-125.003
X149.098Y-86.36
X149.561Y-108.149
X149.587Y-109.165
X150.45Y-111.933
X151.093Y-87.019
X151.093Y-132.739
X151.161Y-113.762
X151.542Y-128.367
X151.593Y-118.705
X151.619Y-124.927
X151.625Y-117.597
X151.625Y-118.156
X151.778Y-119.325
X151.796Y-115.413
X151.923Y-110.155
X152.66Y-115.438
X152.66Y-116.708
X153.473Y-107.463
X153.633Y-89.559
X153.633Y-92.099
X153.633Y-94.639
X153.633Y-132.739
X154.082Y-128.367
X154.159Y-124.876
X155.327Y-112.542
X155.969Y-113.838
X155.994Y-114.981
X156.173Y-132.739
X156.622Y-128.367
X156.699Y-107.437
X156.8Y-124.876
X157.48Y-70.358
X157.48Y-71.374
X157.48Y-72.39
X157.48Y-73.406
X157.48Y-74.422
X157.48Y-75.438
X157.48Y-76.454
X157.48Y-77.47
X157.48Y-78.486
X157.48Y-79.502
X157.48Y-80.518
X157.48Y-81.534
X157.48Y-82.55
X158.496Y-70.358
X158.496Y-71.374
X158.496Y-72.39
X158.496Y-73.406
X158.496Y-74.422
X158.496Y-75.438
X158.496Y-76.454
X158.496Y-77.47
X158.496Y-78.486
X158.496Y-79.502
X158.496Y-80.518
X158.496Y-81.534
X158.496Y-82.55
X158.502Y-115.294
X158.713Y-94.639
X158.713Y-107.339
X158.713Y-127.659
X158.713Y-130.199
X158.713Y-132.739
X159.258Y-88.392
X159.512Y-70.358
X159.512Y-71.374
X159.512Y-72.39
X159.512Y-73.406
X159.512Y-74.422
X159.512Y-75.438
X159.512Y-76.454
X159.512Y-77.47
X159.512Y-78.486
X159.512Y-79.502
X159.512Y-80.518
X159.512Y-81.534
X159.512Y-82.55
X160.528Y-71.374
X160.528Y-72.39
X160.528Y-73.406
X160.528Y-74.422
X160.528Y-75.438
X160.528Y-76.454
X160.528Y-77.47
X160.528Y-78.486
X160.528Y-79.502
X160.528Y-80.518
X160.528Y-81.534
X160.528Y-82.55
X160.534Y-115.184
X161.253Y-92.099
X161.253Y-107.339
X161.53Y-132.29
X161.544Y-72.39
X161.544Y-73.406
X161.544Y-74.422
X161.544Y-75.438
X161.544Y-76.454
X161.544Y-77.47
X161.544Y-78.486
X161.544Y-79.502
X161.544Y-80.518
X161.544Y-81.534
X161.544Y-82.55
X161.798Y-86.36
X163.208Y-116.175
X163.308Y-132.29
X163.793Y-94.639
X163.793Y-107.339
X163.793Y-112.419
X164.09Y-110.866
X164.293Y-117.165
X164.833Y-115.083
X165.111Y-132.316
X165.69Y-124.709
X165.773Y-116.708
X166.333Y-89.559
X166.333Y-92.099
X166.333Y-94.639
X166.333Y-107.339
X166.333Y-112.419
X166.333Y-122.579
X166.333Y-135.279
X166.889Y-132.316
X168.667Y-132.341
X168.872Y-115.845
X168.873Y-107.339
X168.873Y-122.579
X168.873Y-125.119
X169.926Y-70.358
X169.926Y-71.374
X169.926Y-72.39
X169.926Y-73.406
X169.926Y-74.422
X169.926Y-75.438
X169.926Y-76.454
X169.926Y-77.47
X169.926Y-78.486
X169.926Y-79.502
X169.926Y-80.518
X169.926Y-81.534
X169.926Y-82.55
X170.42Y-132.351
X170.942Y-70.358
X170.942Y-71.374
X170.942Y-72.39
X170.942Y-73.406
X170.942Y-74.422
X170.942Y-75.438
X170.942Y-76.454
X170.942Y-77.47
X170.942Y-78.486
X170.942Y-79.502
X170.942Y-80.518
X170.942Y-81.534
X170.942Y-82.55
X171.413Y-94.639
X171.413Y-107.339
X171.691Y-124.481
X171.958Y-70.358
X171.958Y-71.374
X171.958Y-72.39
X171.958Y-73.406
X171.958Y-74.422
X171.958Y-75.438
X171.958Y-76.454
X171.958Y-77.47
X171.958Y-78.486
X171.958Y-79.502
X171.958Y-80.518
X171.958Y-81.534
X171.958Y-82.55
X171.958Y-88.392
X171.971Y-121.839
X172.223Y-132.376
X172.974Y-70.358
X172.974Y-71.374
X172.974Y-72.39
X172.974Y-73.406
X172.974Y-74.422
X172.974Y-75.438
X172.974Y-76.454
X172.974Y-77.47
X172.974Y-78.486
X172.974Y-79.502
X172.974Y-80.518
X172.974Y-81.534
X172.974Y-82.55
X173.953Y-92.099
X173.953Y-97.179
X173.953Y-107.339
X173.953Y-117.499
X173.953Y-120.039
X173.953Y-122.579
X173.953Y-125.119
X173.953Y-127.659
X173.99Y-70.358
X173.99Y-71.374
X173.99Y-72.39
X173.99Y-73.406
X173.99Y-74.422
X173.99Y-75.438
X173.99Y-76.454
X173.99Y-77.47
X173.99Y-78.486
X173.99Y-79.502
X173.99Y-80.518
X173.99Y-81.534
X173.99Y-82.55
X174.027Y-132.376
X174.498Y-86.36
X176.493Y-94.639
X176.493Y-97.179
X176.493Y-107.339
X176.493Y-114.959
X176.493Y-117.499
X176.493Y-120.039
X176.493Y-122.579
X176.493Y-125.119
X176.493Y-127.659
X179.033Y-89.559
X179.033Y-92.099
X179.033Y-94.639
X179.033Y-97.179
X179.033Y-107.339
X179.033Y-112.419
X179.033Y-114.959
X179.033Y-117.499
X179.033Y-120.039
X179.033Y-122.579
X179.033Y-127.659
X179.033Y-135.279
X181.573Y-107.339
X181.573Y-112.419
X181.573Y-114.959
X181.573Y-117.499
X181.573Y-120.039
X181.573Y-122.579
X181.573Y-125.119
X181.573Y-127.659
X181.573Y-130.199
X181.573Y-132.739
X181.573Y-135.279
X181.573Y-137.819
X182.626Y-70.358
X182.626Y-71.374
X182.626Y-72.39
X182.626Y-73.406
X182.626Y-74.422
X182.626Y-75.438
X182.626Y-76.454
X182.626Y-77.47
X182.626Y-78.486
X182.626Y-79.502
X182.626Y-80.518
X182.626Y-81.534
X182.626Y-82.55
X183.642Y-70.358
X183.642Y-71.374
X183.642Y-72.39
X183.642Y-73.406
X183.642Y-74.422
X183.642Y-75.438
X183.642Y-76.454
X183.642Y-77.47
X183.642Y-78.486
X183.642Y-79.502
X183.642Y-80.518
X183.642Y-81.534
X183.642Y-82.55
X184.113Y-94.639
X184.113Y-104.799
X184.113Y-107.339
X184.113Y-112.419
X184.113Y-114.959
X184.113Y-117.499
X184.113Y-120.039
X184.113Y-122.579
X184.113Y-125.119
X184.113Y-127.659
X184.113Y-130.199
X184.113Y-132.739
X184.113Y-135.279
X184.113Y-137.819
X184.658Y-70.358
X184.658Y-71.374
X184.658Y-72.39
X184.658Y-73.406
X184.658Y-74.422
X184.658Y-75.438
X184.658Y-76.454
X184.658Y-77.47
X184.658Y-78.486
X184.658Y-79.502
X184.658Y-80.518
X184.658Y-81.534
X184.658Y-82.55
X184.658Y-88.392
X185.674Y-70.358
X185.674Y-71.374
X185.674Y-72.39
X185.674Y-73.406
X185.674Y-74.422
X185.674Y-75.438
X185.674Y-76.454
X185.674Y-77.47
X185.674Y-78.486
X185.674Y-79.502
X185.674Y-80.518
X185.674Y-81.534
X185.674Y-82.55
X186.653Y-92.099
X186.653Y-97.179
X186.653Y-104.799
X186.653Y-107.339
X186.653Y-112.419
X186.653Y-114.959
X186.653Y-117.499
X186.653Y-120.039
X186.653Y-122.579
X186.653Y-125.119
X186.653Y-127.659
X186.653Y-130.199
X186.653Y-132.739
X186.653Y-135.279
X186.653Y-137.819
X186.69Y-70.358
X186.69Y-71.374
X186.69Y-72.39
X186.69Y-73.406
X186.69Y-74.422
X186.69Y-75.438
X186.69Y-76.454
X186.69Y-77.47
X186.69Y-78.486
X186.69Y-79.502
X186.69Y-80.518
X186.69Y-81.534
X186.69Y-82.55
X187.198Y-86.36
X189.193Y-87.019
X189.193Y-94.639
X189.193Y-104.799
X189.193Y-107.339
X189.193Y-112.419
X189.193Y-114.959
X189.193Y-117.499
X189.193Y-120.039
X189.193Y-122.579
X189.193Y-125.119
X189.193Y-127.659
X189.193Y-130.199
X189.193Y-132.739
X189.193Y-135.279
X189.193Y-137.819
X191.733Y-53.999
X191.733Y-89.559
X191.733Y-92.099
X191.733Y-97.179
X191.733Y-104.799
X191.733Y-107.339
X191.733Y-112.419
X191.733Y-114.959
X191.733Y-117.499
X191.733Y-120.039
X191.733Y-122.579
X191.733Y-125.119
X191.733Y-127.659
X191.733Y-130.199
X191.733Y-132.739
X191.733Y-135.279
X191.733Y-137.819
X194.273Y-53.999
X194.273Y-94.639
X194.273Y-97.179
X194.273Y-104.799
X194.273Y-107.339
X194.273Y-112.419
X194.273Y-114.959
X194.273Y-117.499
X194.273Y-120.039
X194.273Y-122.579
X194.273Y-125.119
X194.273Y-127.659
X194.273Y-130.199
X194.273Y-132.739
X194.273Y-135.279
X194.273Y-137.819
X195.58Y-70.358
X195.58Y-71.374
X195.58Y-72.39
X195.58Y-73.406
X195.58Y-74.422
X195.58Y-75.438
X195.58Y-76.454
X195.58Y-77.47
X195.58Y-78.486
X195.58Y-79.502
X196.596Y-70.358
X196.596Y-71.374
X196.596Y-72.39
X196.596Y-73.406
X196.596Y-74.422
X196.596Y-75.438
X196.596Y-76.454
X196.596Y-77.47
X196.596Y-78.486
X196.596Y-79.502
X196.596Y-80.518
X196.813Y-53.999
X196.813Y-94.639
X196.813Y-97.179
X196.813Y-104.799
X196.813Y-107.339
X196.813Y-112.419
X196.813Y-114.959
X196.813Y-117.499
X196.813Y-120.039
X196.813Y-122.579
X196.813Y-125.119
X196.813Y-127.659
X196.813Y-130.199
X196.813Y-132.739
X196.813Y-135.279
X196.813Y-137.819
X197.358Y-88.392
X197.612Y-70.358
X197.612Y-71.374
X197.612Y-72.39
X197.612Y-73.406
X197.612Y-74.422
X197.612Y-75.438
X197.612Y-76.454
X197.612Y-77.47
X197.612Y-78.486
X197.612Y-79.502
X197.612Y-80.518
X197.612Y-81.534
X198.628Y-70.358
X198.628Y-71.374
X198.628Y-72.39
X198.628Y-73.406
X198.628Y-74.422
X198.628Y-75.438
X198.628Y-76.454
X198.628Y-77.47
X198.628Y-78.486
X198.628Y-79.502
X198.628Y-80.518
X198.628Y-81.534
X198.628Y-82.55
X199.353Y-53.999
X199.353Y-92.099
X199.353Y-94.639
X199.353Y-99.719
X199.353Y-104.799
X199.353Y-107.339
X199.353Y-112.419
X199.353Y-114.959
X199.353Y-117.499
X199.353Y-120.039
X199.353Y-122.579
X199.353Y-125.119
X199.353Y-127.659
X199.353Y-130.199
X199.353Y-132.739
X199.353Y-135.279
X199.353Y-137.819
X199.644Y-70.358
X199.644Y-71.374
X199.644Y-72.39
X199.644Y-73.406
X199.644Y-74.422
X199.644Y-75.438
X199.644Y-76.454
X199.644Y-77.47
X199.644Y-78.486
X199.644Y-79.502
X199.644Y-80.518
X199.644Y-81.534
X199.644Y-82.55
X199.898Y-86.36
X201.893Y-53.999
X201.893Y-87.019
X201.893Y-97.179
X201.893Y-99.719
X201.893Y-104.799
X201.893Y-107.339
X201.893Y-112.419
X201.893Y-114.959
X201.893Y-117.499
X201.893Y-120.039
X201.893Y-122.579
X201.893Y-125.119
X201.893Y-127.659
X201.893Y-130.199
X201.893Y-132.739
X201.893Y-135.279
X201.893Y-137.819
X204.433Y-53.999
X204.433Y-89.559
X204.433Y-92.099
X204.433Y-94.639
X204.433Y-97.179
X204.433Y-99.719
X204.433Y-107.339
X204.433Y-112.419
X204.433Y-114.959
X204.433Y-117.499
X204.433Y-120.039
X204.433Y-122.579
X204.433Y-125.119
X204.433Y-127.659
X204.433Y-130.199
X204.433Y-132.739
X204.433Y-135.279
X204.433Y-137.819
X206.973Y-53.999
X206.973Y-104.799
X206.973Y-107.339
X206.973Y-112.419
X206.973Y-114.959
X206.973Y-122.579
X206.973Y-140.359
X208.28Y-70.358
X208.28Y-71.374
X208.28Y-72.39
X208.28Y-73.406
X208.28Y-74.422
X208.28Y-75.438
X208.28Y-76.454
X208.28Y-77.47
X208.28Y-78.486
X208.28Y-79.502
X208.28Y-80.518
X208.28Y-81.534
X208.28Y-82.55
X209.296Y-70.358
X209.296Y-71.374
X209.296Y-72.39
X209.296Y-73.406
X209.296Y-74.422
X209.296Y-75.438
X209.296Y-76.454
X209.296Y-77.47
X209.296Y-78.486
X209.296Y-79.502
X209.296Y-80.518
X209.296Y-81.534
X209.296Y-82.55
X209.513Y-53.999
X209.513Y-94.639
X209.513Y-97.179
X209.513Y-104.799
X209.513Y-107.339
X209.513Y-112.419
X209.513Y-114.959
X209.513Y-117.499
X209.513Y-122.579
X209.513Y-125.119
X209.513Y-127.659
X209.513Y-130.199
X209.513Y-132.739
X209.513Y-135.279
X209.513Y-137.819
X209.513Y-140.359
X210.058Y-88.392
X210.312Y-70.358
X210.312Y-71.374
X210.312Y-72.39
X210.312Y-73.406
X210.312Y-74.422
X210.312Y-75.438
X210.312Y-76.454
X210.312Y-77.47
X210.312Y-78.486
X210.312Y-79.502
X210.312Y-80.518
X210.312Y-81.534
X210.312Y-82.55
X211.328Y-70.358
X211.328Y-71.374
X211.328Y-72.39
X211.328Y-73.406
X211.328Y-74.422
X211.328Y-75.438
X211.328Y-76.454
X211.328Y-77.47
X211.328Y-78.486
X211.328Y-79.502
X211.328Y-80.518
X211.328Y-81.534
X211.328Y-82.55
X212.053Y-53.999
X212.053Y-92.099
X212.053Y-94.639
X212.053Y-99.719
X212.053Y-104.799
X212.053Y-107.339
X212.053Y-112.419
X212.053Y-114.959
X212.053Y-117.499
X212.053Y-122.579
X212.053Y-125.119
X212.053Y-127.659
X212.053Y-130.199
X212.053Y-132.739
X212.053Y-135.279
X212.053Y-137.819
X212.053Y-140.359
X212.344Y-70.358
X212.344Y-71.374
X212.344Y-72.39
X212.344Y-73.406
X212.344Y-74.422
X212.344Y-75.438
X212.344Y-76.454
X212.344Y-77.47
X212.344Y-78.486
X212.344Y-79.502
X212.344Y-80.518
X212.344Y-81.534
X212.344Y-82.55
X212.598Y-86.106
X214.593Y-53.999
X214.593Y-87.019
X214.593Y-97.179
X214.593Y-99.719
X214.593Y-104.799
X214.593Y-107.339
X214.593Y-112.419
X214.593Y-114.959
X214.593Y-117.499
X214.593Y-130.199
X214.593Y-132.739
X214.593Y-135.279
X214.593Y-137.819
X214.593Y-140.359
X217.133Y-53.999
X217.133Y-89.559
X217.133Y-92.099
X217.133Y-94.639
X217.133Y-97.179
X217.133Y-99.719
X217.133Y-104.799
X217.133Y-107.339
X217.133Y-112.419
X217.133Y-114.959
X217.133Y-117.499
X217.133Y-130.199
X217.133Y-132.739
X217.133Y-135.279
X217.133Y-137.819
X217.133Y-140.359
X217.865Y-122.746
X219.673Y-53.999
X219.673Y-104.799
X219.673Y-107.339
X219.673Y-125.119
X219.673Y-127.659
X219.673Y-130.199
X219.673Y-132.739
X219.673Y-135.279
X219.673Y-137.819
X219.673Y-140.359
X220.98Y-70.358
X220.98Y-71.374
X220.98Y-72.39
X220.98Y-73.406
X220.98Y-74.422
X220.98Y-75.438
X220.98Y-76.454
X220.98Y-77.47
X220.98Y-78.486
X220.98Y-79.502
X220.98Y-80.518
X220.98Y-81.534
X220.98Y-82.55
X221.996Y-70.358
X221.996Y-71.374
X221.996Y-72.39
X221.996Y-73.406
X221.996Y-74.422
X221.996Y-75.438
X221.996Y-76.454
X221.996Y-77.47
X221.996Y-78.486
X221.996Y-79.502
X221.996Y-80.518
X221.996Y-81.534
X221.996Y-82.55
X222.174Y-115.672
X222.213Y-53.999
X222.213Y-94.639
X222.213Y-97.179
X222.213Y-104.799
X222.213Y-107.339
X222.213Y-112.419
X222.213Y-125.119
X222.213Y-130.199
X222.213Y-132.739
X222.213Y-135.279
X222.213Y-137.819
X222.213Y-140.359
X222.758Y-88.392
X223.012Y-70.358
X223.012Y-71.374
X223.012Y-72.39
X223.012Y-73.406
X223.012Y-74.422
X223.012Y-75.438
X223.012Y-76.454
X223.012Y-77.47
X223.012Y-78.486
X223.012Y-79.502
X223.012Y-80.518
X223.012Y-81.534
X223.012Y-82.55
X224.028Y-70.358
X224.028Y-71.374
X224.028Y-72.39
X224.028Y-73.406
X224.028Y-74.422
X224.028Y-75.438
X224.028Y-76.454
X224.028Y-77.47
X224.028Y-78.486
X224.028Y-79.502
X224.028Y-80.518
X224.028Y-81.534
X224.028Y-82.55
X224.753Y-53.999
X224.753Y-61.619
X224.753Y-92.099
X224.753Y-94.639
X224.753Y-99.719
X224.753Y-104.799
X224.753Y-107.339
X224.753Y-112.419
X224.753Y-114.959
X224.753Y-117.499
X224.753Y-120.039
X224.753Y-122.579
X224.753Y-125.119
X224.753Y-127.659
X224.753Y-130.199
X224.753Y-132.739
X224.753Y-135.279
X224.753Y-137.819
X224.753Y-140.359
X225.044Y-70.358
X225.044Y-71.374
X225.044Y-72.39
X225.044Y-73.406
X225.044Y-74.422
X225.044Y-75.438
X225.044Y-76.454
X225.044Y-77.47
X225.044Y-78.486
X225.044Y-79.502
X225.044Y-80.518
X225.044Y-81.534
X225.044Y-82.55
X225.298Y-86.106
X227.293Y-53.999
X227.293Y-61.619
X227.293Y-64.159
X227.293Y-87.019
X227.293Y-97.179
X227.293Y-99.719
X227.293Y-104.799
X227.293Y-109.879
X227.293Y-112.419
X227.293Y-114.959
X227.293Y-117.499
X227.293Y-120.039
X227.293Y-122.579
X227.293Y-125.119
X227.293Y-127.659
X227.293Y-130.199
X227.293Y-132.739
X227.293Y-135.279
X227.293Y-137.819
X227.293Y-140.359
X228.829Y-116.535
X229.833Y-53.999
X229.833Y-61.619
X229.833Y-64.159
X229.833Y-92.099
X229.833Y-94.639
X229.833Y-97.179
X229.833Y-99.719
X229.833Y-122.579
X229.833Y-130.199
X229.833Y-132.739
X229.833Y-135.279
X229.833Y-137.819
X229.833Y-140.359
X232.373Y-53.999
X232.373Y-64.159
X232.373Y-112.419
X232.373Y-114.959
X232.373Y-117.499
X232.373Y-120.039
X232.373Y-122.579
X232.373Y-125.119
X232.373Y-127.659
X232.373Y-130.199
X232.373Y-132.739
X232.373Y-135.279
X232.373Y-137.819
X232.373Y-140.359
X233.68Y-70.358
X233.68Y-71.374
X233.68Y-72.39
X233.68Y-73.406
X233.68Y-74.422
X233.68Y-75.438
X233.68Y-76.454
X233.68Y-77.47
X233.68Y-78.486
X233.68Y-79.502
X233.68Y-80.518
X233.68Y-81.534
X233.68Y-82.55
X233.934Y-60.452
X234.696Y-61.214
X234.696Y-70.358
X234.696Y-71.374
X234.696Y-72.39
X234.696Y-73.406
X234.696Y-74.422
X234.696Y-75.438
X234.696Y-76.454
X234.696Y-77.47
X234.696Y-78.486
X234.696Y-79.502
X234.696Y-80.518
X234.696Y-81.534
X234.696Y-82.55
X234.913Y-53.999
X234.913Y-56.539
X234.913Y-94.639
X234.913Y-97.179
X234.913Y-114.959
X234.913Y-117.499
X234.913Y-120.039
X234.913Y-122.579
X234.913Y-125.119
X234.913Y-127.659
X234.913Y-130.199
X234.913Y-132.739
X234.913Y-135.279
X234.913Y-137.819
X234.913Y-140.359
X235.458Y-61.976
X235.712Y-70.358
X235.712Y-71.374
X235.712Y-72.39
X235.712Y-73.406
X235.712Y-74.422
X235.712Y-75.438
X235.712Y-76.454
X235.712Y-77.47
X235.712Y-78.486
X235.712Y-79.502
X235.712Y-80.518
X235.712Y-81.534
X235.712Y-82.55
X236.728Y-70.358
X236.728Y-71.374
X236.728Y-72.39
X236.728Y-73.406
X236.728Y-74.422
X236.728Y-75.438
X236.728Y-76.454
X236.728Y-77.47
X236.728Y-78.486
X236.728Y-79.502
X236.728Y-80.518
X236.728Y-81.534
X236.728Y-82.55
X237.453Y-53.999
X237.453Y-56.539
X237.453Y-89.559
X237.453Y-92.099
X237.453Y-94.639
X237.453Y-107.339
X237.453Y-109.879
X237.453Y-112.419
X237.453Y-114.959
X237.453Y-125.119
X237.453Y-127.659
X237.453Y-130.199
X237.453Y-132.739
X237.453Y-137.819
X237.453Y-140.359
X237.744Y-70.358
X237.744Y-71.374
X237.744Y-72.39
X237.744Y-73.406
X237.744Y-74.422
X237.744Y-75.438
X237.744Y-76.454
X237.744Y-77.47
X237.744Y-78.486
X237.744Y-79.502
X237.744Y-80.518
X237.744Y-81.534
X237.744Y-82.55
X237.998Y-86.106
X239.993Y-53.999
X239.993Y-64.159
X239.993Y-87.019
X239.993Y-104.799
X239.993Y-107.339
X239.993Y-109.879
X239.993Y-112.419
X239.993Y-114.959
X239.993Y-125.119
X239.993Y-127.659
X239.993Y-130.199
X239.993Y-140.359
X242.533Y-53.999
X242.533Y-61.619
X242.533Y-64.159
X242.533Y-69.239
X242.533Y-71.779
X242.533Y-74.319
X242.533Y-76.859
X242.533Y-79.399
X242.533Y-102.259
X242.533Y-104.799
X242.533Y-107.339
X242.533Y-114.959
X242.533Y-117.499
X242.533Y-120.039
X242.533Y-122.579
X242.533Y-125.119
X242.533Y-127.659
X242.533Y-130.199
X242.533Y-137.819
X242.533Y-140.359
X245.073Y-53.999
X245.073Y-56.539
X245.073Y-59.079
X245.073Y-61.619
X245.073Y-69.239
X245.073Y-71.779
X245.073Y-74.319
X245.073Y-76.859
X245.073Y-79.399
X245.073Y-87.019
X245.073Y-89.559
X245.073Y-92.099
X245.073Y-94.639
X245.073Y-97.179
X245.073Y-99.719
X245.073Y-102.259
X245.073Y-104.799
X245.073Y-107.339
X245.073Y-109.879
X245.073Y-112.419
X245.073Y-114.959
X245.073Y-117.499
X245.073Y-120.039
X245.073Y-122.579
X245.073Y-125.119
X245.073Y-127.659
X245.073Y-130.199
X245.073Y-132.739
X245.073Y-135.279
X245.073Y-137.819
T3
X229.87Y-88.138
T6
X178.077Y-124.504
X178.077Y-126.504
X178.077Y-128.504
X178.077Y-130.504
X178.077Y-132.504
X178.077Y-134.504
X178.077Y-136.504
X178.077Y-138.504
X180.077Y-124.504
X180.077Y-126.504
X180.077Y-128.504
X180.077Y-130.504
X180.077Y-132.504
X180.077Y-134.504
X180.077Y-136.504
X180.077Y-138.504
T7
X65.274Y-136.271
X66.659Y-133.431
X68.044Y-136.271
X69.429Y-133.431
X70.814Y-136.271
X72.199Y-133.431
X73.584Y-136.271
X74.969Y-133.431
X89.56Y-115.545
X89.56Y-118.085
X92.1Y-115.545
X92.1Y-118.085
X94.64Y-115.545
X94.64Y-118.085
X96.977Y-132.11
X96.977Y-134.65
T8
X39.853Y-89.611
X42.85Y-94.183
X56.373Y-92.578
X69.073Y-92.578
X81.773Y-92.578
X94.473Y-92.578
X107.173Y-92.578
X119.164Y-113.457
X119.873Y-92.578
X132.573Y-92.578
X143.501Y-128.504
X145.273Y-92.578
X147.692Y-123.297
X150.359Y-123.297
X155.439Y-123.17
X157.973Y-92.578
X158.233Y-123.17
X168.408Y-111.374
X170.673Y-92.578
X171.361Y-111.374
X174.333Y-111.374
X177.254Y-111.374
X183.373Y-92.578
X196.073Y-92.578
X208.773Y-92.578
X221.473Y-92.578
X234.173Y-92.578
T9
X100.823Y-57.404
X105.903Y-57.404
X110.983Y-57.404
X116.063Y-57.404
X121.143Y-57.404
X126.223Y-57.404
X131.303Y-57.404
X136.383Y-57.404
X141.463Y-57.404
X146.543Y-57.404
X151.623Y-57.404
X156.703Y-57.404
X161.783Y-57.404
X166.863Y-57.404
X171.943Y-57.404
X177.023Y-57.404
X182.103Y-57.404
T10
X42.17Y-59.05
X42.17Y-134.862
X56.929Y-133.731
X81.929Y-133.731
X240.29Y-59.05
X240.29Y-134.717
T4
G00X87.026Y-134.305
M15
G01X87.026Y-133.655
M16
G05
G00X94.026Y-134.305
M15
G01X94.026Y-133.655
M16
G05
T5
G00X88.176Y-131.28
M15
G01X87.876Y-131.28
M16
G05
G00X93.176Y-131.28
M15
G01X92.876Y-131.28
M16
G05
T0
M30
