%TF.GenerationSoftware,KiCad,Pcbnew,7.0.5*%
%TF.CreationDate,2024-10-03T13:21:03+03:00*%
%TF.ProjectId,pasive_balance_rev4,70617369-7665-45f6-9261-6c616e63655f,rev?*%
%TF.SameCoordinates,Original*%
%TF.FileFunction,Soldermask,Top*%
%TF.FilePolarity,Negative*%
%FSLAX46Y46*%
G04 Gerber Fmt 4.6, Leading zero omitted, Abs format (unit mm)*
G04 Created by KiCad (PCBNEW 7.0.5) date 2024-10-03 13:21:03*
%MOMM*%
%LPD*%
G01*
G04 APERTURE LIST*
G04 Aperture macros list*
%AMRoundRect*
0 Rectangle with rounded corners*
0 $1 Rounding radius*
0 $2 $3 $4 $5 $6 $7 $8 $9 X,Y pos of 4 corners*
0 Add a 4 corners polygon primitive as box body*
4,1,4,$2,$3,$4,$5,$6,$7,$8,$9,$2,$3,0*
0 Add four circle primitives for the rounded corners*
1,1,$1+$1,$2,$3*
1,1,$1+$1,$4,$5*
1,1,$1+$1,$6,$7*
1,1,$1+$1,$8,$9*
0 Add four rect primitives between the rounded corners*
20,1,$1+$1,$2,$3,$4,$5,0*
20,1,$1+$1,$4,$5,$6,$7,0*
20,1,$1+$1,$6,$7,$8,$9,0*
20,1,$1+$1,$8,$9,$2,$3,0*%
G04 Aperture macros list end*
%ADD10R,0.850000X1.000000*%
%ADD11R,0.950000X0.900000*%
%ADD12R,1.000000X0.850000*%
%ADD13RoundRect,0.150000X-0.150000X0.825000X-0.150000X-0.825000X0.150000X-0.825000X0.150000X0.825000X0*%
%ADD14R,0.300000X1.475000*%
%ADD15R,1.475000X0.300000*%
%ADD16R,1.500000X2.000000*%
%ADD17R,3.800000X2.000000*%
%ADD18R,1.800000X1.050000*%
%ADD19R,0.830000X2.720000*%
%ADD20C,3.200000*%
%ADD21R,1.000000X1.500000*%
%ADD22C,1.600000*%
%ADD23R,1.300000X0.600000*%
%ADD24R,1.200000X0.750000*%
%ADD25R,0.400000X0.650000*%
%ADD26RoundRect,0.250000X0.350000X-0.850000X0.350000X0.850000X-0.350000X0.850000X-0.350000X-0.850000X0*%
%ADD27RoundRect,0.249997X2.650003X-2.950003X2.650003X2.950003X-2.650003X2.950003X-2.650003X-2.950003X0*%
%ADD28RoundRect,0.250000X-0.350000X0.850000X-0.350000X-0.850000X0.350000X-0.850000X0.350000X0.850000X0*%
%ADD29RoundRect,0.249997X-2.650003X2.950003X-2.650003X-2.950003X2.650003X-2.950003X2.650003X2.950003X0*%
%ADD30R,0.600000X1.300000*%
%ADD31C,5.700000*%
%ADD32R,0.950000X1.000000*%
%ADD33R,0.970000X1.470000*%
%ADD34RoundRect,0.070000X-0.300000X0.650000X-0.300000X-0.650000X0.300000X-0.650000X0.300000X0.650000X0*%
%ADD35R,1.100000X1.750000*%
%ADD36R,0.650000X1.650000*%
%ADD37R,1.470000X0.970000*%
%ADD38R,1.200000X2.850000*%
%ADD39R,0.750000X1.200000*%
%ADD40R,0.950000X0.800000*%
%ADD41R,1.475000X0.700000*%
%ADD42R,0.900000X0.950000*%
%ADD43R,1.050000X1.800000*%
%ADD44RoundRect,0.250000X1.000000X0.650000X-1.000000X0.650000X-1.000000X-0.650000X1.000000X-0.650000X0*%
%ADD45R,0.800000X0.950000*%
%ADD46RoundRect,0.112500X0.112500X-0.187500X0.112500X0.187500X-0.112500X0.187500X-0.112500X-0.187500X0*%
%ADD47R,2.600000X1.060000*%
%ADD48R,5.700000X5.632000*%
%ADD49R,1.000000X0.950000*%
%ADD50R,2.720000X0.830000*%
%ADD51R,1.350000X1.350000*%
%ADD52O,1.350000X1.350000*%
%ADD53C,3.810000*%
%ADD54R,1.700000X1.700000*%
%ADD55O,1.700000X1.700000*%
%ADD56C,4.000000*%
%ADD57R,2.100000X2.100000*%
%ADD58C,2.100000*%
%ADD59C,3.760000*%
%ADD60O,1.000000X1.550000*%
%ADD61O,1.250000X0.950000*%
G04 APERTURE END LIST*
D10*
%TO.C,R54*%
X74484800Y-129438400D03*
X75984800Y-129438400D03*
%TD*%
D11*
%TO.C,D8*%
X122085007Y-112237793D03*
X122085007Y-115387793D03*
%TD*%
D12*
%TO.C,R90*%
X170470793Y-132112407D03*
X170470793Y-133612407D03*
%TD*%
D13*
%TO.C,U1*%
X51485800Y-115239800D03*
X50215800Y-115239800D03*
X48945800Y-115239800D03*
X47675800Y-115239800D03*
X47675800Y-120189800D03*
X48945800Y-120189800D03*
X50215800Y-120189800D03*
X51485800Y-120189800D03*
%TD*%
D10*
%TO.C,R3*%
X165601993Y-110866393D03*
X164101993Y-110866393D03*
%TD*%
%TO.C,R19*%
X187424607Y-88260393D03*
X185924607Y-88260393D03*
%TD*%
D14*
%TO.C,IC1*%
X146212607Y-106160393D03*
X145712607Y-106160393D03*
X145212607Y-106160393D03*
X144712607Y-106160393D03*
X144212607Y-106160393D03*
X143712607Y-106160393D03*
X143212607Y-106160393D03*
X142712607Y-106160393D03*
X142212607Y-106160393D03*
X141712607Y-106160393D03*
X141212607Y-106160393D03*
X140712607Y-106160393D03*
X140212607Y-106160393D03*
X139712607Y-106160393D03*
X139212607Y-106160393D03*
X138712607Y-106160393D03*
X138212607Y-106160393D03*
X137712607Y-106160393D03*
X137212607Y-106160393D03*
X136712607Y-106160393D03*
D15*
X134724607Y-108148393D03*
X134724607Y-108648393D03*
X134724607Y-109148393D03*
X134724607Y-109648393D03*
X134724607Y-110148393D03*
X134724607Y-110648393D03*
X134724607Y-111148393D03*
X134724607Y-111648393D03*
X134724607Y-112148393D03*
X134724607Y-112648393D03*
X134724607Y-113148393D03*
X134724607Y-113648393D03*
X134724607Y-114148393D03*
X134724607Y-114648393D03*
X134724607Y-115148393D03*
X134724607Y-115648393D03*
X134724607Y-116148393D03*
X134724607Y-116648393D03*
X134724607Y-117148393D03*
X134724607Y-117648393D03*
D14*
X136712607Y-119636393D03*
X137212607Y-119636393D03*
X137712607Y-119636393D03*
X138212607Y-119636393D03*
X138712607Y-119636393D03*
X139212607Y-119636393D03*
X139712607Y-119636393D03*
X140212607Y-119636393D03*
X140712607Y-119636393D03*
X141212607Y-119636393D03*
X141712607Y-119636393D03*
X142212607Y-119636393D03*
X142712607Y-119636393D03*
X143212607Y-119636393D03*
X143712607Y-119636393D03*
X144212607Y-119636393D03*
X144712607Y-119636393D03*
X145212607Y-119636393D03*
X145712607Y-119636393D03*
X146212607Y-119636393D03*
D15*
X148200607Y-117648393D03*
X148200607Y-117148393D03*
X148200607Y-116648393D03*
X148200607Y-116148393D03*
X148200607Y-115648393D03*
X148200607Y-115148393D03*
X148200607Y-114648393D03*
X148200607Y-114148393D03*
X148200607Y-113648393D03*
X148200607Y-113148393D03*
X148200607Y-112648393D03*
X148200607Y-112148393D03*
X148200607Y-111648393D03*
X148200607Y-111148393D03*
X148200607Y-110648393D03*
X148200607Y-110148393D03*
X148200607Y-109648393D03*
X148200607Y-109148393D03*
X148200607Y-108648393D03*
X148200607Y-108148393D03*
%TD*%
D16*
%TO.C,U2*%
X90573800Y-127584200D03*
X92873800Y-127584200D03*
D17*
X92873800Y-121284200D03*
D16*
X95173800Y-127584200D03*
%TD*%
D10*
%TO.C,R16*%
X200124607Y-88260393D03*
X198624607Y-88260393D03*
%TD*%
D18*
%TO.C,R46*%
X149046493Y-125229993D03*
X149046493Y-128229993D03*
%TD*%
D19*
%TO.C,C55*%
X130302607Y-92578393D03*
X127222607Y-92578393D03*
%TD*%
D20*
%TO.C,REF\u002A\u002A*%
X37414200Y-66000000D03*
%TD*%
D21*
%TO.C,JP2*%
X100472000Y-120396000D03*
X99172000Y-120396000D03*
%TD*%
D18*
%TO.C,R50*%
X140429893Y-125483993D03*
X140429893Y-128483993D03*
%TD*%
D22*
%TO.C,VREF1*%
X171361007Y-111374393D03*
%TD*%
D23*
%TO.C,IC3*%
X122093207Y-120609793D03*
X122093207Y-122509793D03*
X124193207Y-121559793D03*
%TD*%
D18*
%TO.C,R48*%
X135197493Y-125483993D03*
X135197493Y-128483993D03*
%TD*%
D24*
%TO.C,Z6*%
X168562607Y-89276393D03*
X165162607Y-89276393D03*
%TD*%
D12*
%TO.C,R34*%
X124980607Y-129483193D03*
X124980607Y-130983193D03*
%TD*%
D19*
%TO.C,C25*%
X193802607Y-92578393D03*
X190722607Y-92578393D03*
%TD*%
%TO.C,C59*%
X79502607Y-92578393D03*
X76422607Y-92578393D03*
%TD*%
D25*
%TO.C,Q20*%
X87096600Y-124053600D03*
X87746600Y-124053600D03*
X88396600Y-124053600D03*
X88396600Y-122153600D03*
X87746600Y-122153600D03*
X87096600Y-122153600D03*
%TD*%
D26*
%TO.C,Q17*%
X42881200Y-86216600D03*
D27*
X45161200Y-79916600D03*
D26*
X47441200Y-86216600D03*
%TD*%
D10*
%TO.C,R62*%
X123912607Y-88260393D03*
X122412607Y-88260393D03*
%TD*%
D28*
%TO.C,Q29*%
X136340200Y-66573400D03*
D29*
X134060200Y-72873400D03*
D28*
X131780200Y-66573400D03*
%TD*%
D10*
%TO.C,R68*%
X98524607Y-88260393D03*
X97024607Y-88260393D03*
%TD*%
%TO.C,R22*%
X174736607Y-88260393D03*
X173236607Y-88260393D03*
%TD*%
D19*
%TO.C,C16*%
X231902607Y-92578393D03*
X228822607Y-92578393D03*
%TD*%
D22*
%TO.C,CHP1*%
X119164007Y-113457193D03*
%TD*%
D20*
%TO.C,REF\u002A\u002A*%
X244000000Y-66000000D03*
%TD*%
D30*
%TO.C,IC5*%
X118203807Y-120289793D03*
X120103807Y-120289793D03*
X119153807Y-118189793D03*
%TD*%
D19*
%TO.C,C32*%
X155702607Y-92578393D03*
X152622607Y-92578393D03*
%TD*%
D22*
%TO.C,BAT2*%
X56372607Y-92578393D03*
%TD*%
D10*
%TO.C,R41*%
X86576600Y-115544600D03*
X85076600Y-115544600D03*
%TD*%
D22*
%TO.C,BAT6*%
X107172607Y-92578393D03*
%TD*%
D18*
%TO.C,R45*%
X151611893Y-125229993D03*
X151611893Y-128229993D03*
%TD*%
D22*
%TO.C,VP1*%
X177253807Y-111374393D03*
%TD*%
D24*
%TO.C,Z11*%
X105062607Y-89276393D03*
X101662607Y-89276393D03*
%TD*%
D22*
%TO.C,BAT7*%
X119872607Y-92578393D03*
%TD*%
D12*
%TO.C,R100*%
X161555393Y-132128207D03*
X161555393Y-133628207D03*
%TD*%
D19*
%TO.C,C61*%
X54102607Y-92578393D03*
X51022607Y-92578393D03*
%TD*%
D26*
%TO.C,Q16*%
X55607600Y-86207000D03*
D27*
X57887600Y-79907000D03*
D26*
X60167600Y-86207000D03*
%TD*%
D31*
%TO.C,REF\u002A\u002A*%
X42169993Y-134862393D03*
%TD*%
D24*
%TO.C,Z1*%
X232062607Y-89276393D03*
X228662607Y-89276393D03*
%TD*%
D28*
%TO.C,Q36*%
X47442200Y-66573400D03*
D29*
X45162200Y-72873400D03*
D28*
X42882200Y-66573400D03*
%TD*%
D32*
%TO.C,C50*%
X127597007Y-113355593D03*
X129197007Y-113355593D03*
%TD*%
D28*
%TO.C,Q25*%
X187114800Y-66573400D03*
D29*
X184834800Y-72873400D03*
D28*
X182554800Y-66573400D03*
%TD*%
%TO.C,Q30*%
X123590400Y-66573400D03*
D29*
X121310400Y-72873400D03*
D28*
X119030400Y-66573400D03*
%TD*%
D26*
%TO.C,Q3*%
X220655800Y-86165800D03*
D27*
X222935800Y-79865800D03*
D26*
X225215800Y-86165800D03*
%TD*%
D22*
%TO.C,BAT3*%
X69072607Y-92578393D03*
%TD*%
D28*
%TO.C,Q34*%
X72867600Y-66573400D03*
D29*
X70587600Y-72873400D03*
D28*
X68307600Y-66573400D03*
%TD*%
D33*
%TO.C,C3*%
X70273600Y-127584200D03*
X68613600Y-127584200D03*
%TD*%
D26*
%TO.C,Q6*%
X182561800Y-86207600D03*
D27*
X184841800Y-79907600D03*
D26*
X187121800Y-86207600D03*
%TD*%
D12*
%TO.C,R92*%
X168692793Y-132128207D03*
X168692793Y-133628207D03*
%TD*%
D24*
%TO.C,Z7*%
X155862607Y-89276393D03*
X152462607Y-89276393D03*
%TD*%
D34*
%TO.C,D3*%
X124660607Y-125869193D03*
X122760607Y-125869193D03*
X123710607Y-127969193D03*
%TD*%
D10*
%TO.C,R7*%
X236700607Y-88260393D03*
X235200607Y-88260393D03*
%TD*%
D12*
%TO.C,R95*%
X166889393Y-132114808D03*
X166889393Y-133614808D03*
%TD*%
D26*
%TO.C,Q9*%
X144461800Y-86207600D03*
D27*
X146741800Y-79907600D03*
D26*
X149021800Y-86207600D03*
%TD*%
D35*
%TO.C,LED3*%
X127290607Y-116251193D03*
X130290607Y-116251193D03*
%TD*%
D22*
%TO.C,BAT13*%
X196072607Y-92578393D03*
%TD*%
D10*
%TO.C,R65*%
X111224607Y-88260393D03*
X109724607Y-88260393D03*
%TD*%
D28*
%TO.C,Q33*%
X85718000Y-66573400D03*
D29*
X83438000Y-72873400D03*
D28*
X81158000Y-66573400D03*
%TD*%
D10*
%TO.C,R10*%
X225524607Y-88260393D03*
X224024607Y-88260393D03*
%TD*%
D36*
%TO.C,Q19*%
X119773607Y-124229193D03*
X118503607Y-124229193D03*
X118503607Y-130729193D03*
X119773607Y-130729193D03*
%TD*%
D19*
%TO.C,C28*%
X181102607Y-92578393D03*
X178022607Y-92578393D03*
%TD*%
D10*
%TO.C,R71*%
X85824607Y-88260393D03*
X84324607Y-88260393D03*
%TD*%
D28*
%TO.C,Q22*%
X225221800Y-66573400D03*
D29*
X222941800Y-72873400D03*
D28*
X220661800Y-66573400D03*
%TD*%
D24*
%TO.C,Z3*%
X206662607Y-89276393D03*
X203262607Y-89276393D03*
%TD*%
D19*
%TO.C,C60*%
X66802607Y-92578393D03*
X63722607Y-92578393D03*
%TD*%
D24*
%TO.C,Z10*%
X117762607Y-89276393D03*
X114362607Y-89276393D03*
%TD*%
D28*
%TO.C,Q35*%
X60172600Y-66573400D03*
D29*
X57892600Y-72873400D03*
D28*
X55612600Y-66573400D03*
%TD*%
D37*
%TO.C,C2*%
X85013800Y-129201600D03*
X85013800Y-127541600D03*
%TD*%
D22*
%TO.C,BAT10*%
X157972607Y-92578393D03*
%TD*%
D37*
%TO.C,C11*%
X88214200Y-125839800D03*
X88214200Y-127499800D03*
%TD*%
D22*
%TO.C,BAT4*%
X81772607Y-92578393D03*
%TD*%
D38*
%TO.C,L2*%
X50876200Y-124612400D03*
X50876200Y-131962400D03*
X48376200Y-124612400D03*
X48376200Y-131962400D03*
%TD*%
D22*
%TO.C,V5VA0*%
X143500600Y-128504000D03*
%TD*%
D12*
%TO.C,R88*%
X172248793Y-132112407D03*
X172248793Y-133612407D03*
%TD*%
D10*
%TO.C,R25*%
X162024607Y-88260393D03*
X160524607Y-88260393D03*
%TD*%
D28*
%TO.C,Q28*%
X149016800Y-66573400D03*
D29*
X146736800Y-72873400D03*
D28*
X144456800Y-66573400D03*
%TD*%
D39*
%TO.C,Z16*%
X43053000Y-88546200D03*
X43053000Y-91946200D03*
%TD*%
D28*
%TO.C,Q27*%
X161767600Y-66573400D03*
D29*
X159487600Y-72873400D03*
D28*
X157207600Y-66573400D03*
%TD*%
D36*
%TO.C,Q18*%
X127520607Y-130931193D03*
X128790607Y-130931193D03*
X128790607Y-124431193D03*
X127520607Y-124431193D03*
%TD*%
D10*
%TO.C,R59*%
X136624607Y-88260393D03*
X135124607Y-88260393D03*
%TD*%
D22*
%TO.C,BAT14*%
X208772607Y-92578393D03*
%TD*%
D26*
%TO.C,Q10*%
X131782200Y-86207000D03*
D27*
X134062200Y-79907000D03*
D26*
X136342200Y-86207000D03*
%TD*%
D22*
%TO.C,BAT11*%
X170672607Y-92578393D03*
%TD*%
D40*
%TO.C,R28*%
X130721007Y-125991993D03*
X130721007Y-124391993D03*
%TD*%
D19*
%TO.C,C34*%
X143002607Y-92578393D03*
X139922607Y-92578393D03*
%TD*%
D28*
%TO.C,Q31*%
X110998000Y-66548000D03*
D29*
X108718000Y-72848000D03*
D28*
X106438000Y-66548000D03*
%TD*%
%TO.C,Q26*%
X174414800Y-66573400D03*
D29*
X172134800Y-72873400D03*
D28*
X169854800Y-66573400D03*
%TD*%
D19*
%TO.C,C56*%
X117602607Y-92578393D03*
X114522607Y-92578393D03*
%TD*%
%TO.C,C58*%
X92202607Y-92578393D03*
X89122607Y-92578393D03*
%TD*%
D41*
%TO.C,S1*%
X164221007Y-120645393D03*
X164221007Y-121915393D03*
X164221007Y-123185393D03*
X164221007Y-124455393D03*
X171897007Y-124455393D03*
X171897007Y-123185393D03*
X171897007Y-121915393D03*
X171897007Y-120645393D03*
%TD*%
D31*
%TO.C,REF\u002A\u002A*%
X240289993Y-134716607D03*
%TD*%
D26*
%TO.C,Q11*%
X119031400Y-86207000D03*
D27*
X121311400Y-79907000D03*
D26*
X123591400Y-86207000D03*
%TD*%
D10*
%TO.C,R13*%
X212824607Y-88260393D03*
X211324607Y-88260393D03*
%TD*%
D28*
%TO.C,Q24*%
X199842200Y-66573400D03*
D29*
X197562200Y-72873400D03*
D28*
X195282200Y-66573400D03*
%TD*%
D19*
%TO.C,C24*%
X206502607Y-92578393D03*
X203422607Y-92578393D03*
%TD*%
D28*
%TO.C,Q23*%
X212565600Y-66573400D03*
D29*
X210285600Y-72873400D03*
D28*
X208005600Y-66573400D03*
%TD*%
D42*
%TO.C,D5*%
X153497993Y-107437393D03*
X156647993Y-107437393D03*
%TD*%
D43*
%TO.C,R27*%
X135370607Y-123109193D03*
X132370607Y-123109193D03*
%TD*%
D11*
%TO.C,D1*%
X115989007Y-122067793D03*
X115989007Y-118917793D03*
%TD*%
D26*
%TO.C,Q13*%
X93738000Y-86207600D03*
D27*
X96018000Y-79907600D03*
D26*
X98298000Y-86207600D03*
%TD*%
D44*
%TO.C,D6*%
X143478000Y-53594000D03*
X139478000Y-53594000D03*
%TD*%
D22*
%TO.C,COMMH+1*%
X150358600Y-123297000D03*
%TD*%
D24*
%TO.C,Z15*%
X54262607Y-89276393D03*
X50862607Y-89276393D03*
%TD*%
D20*
%TO.C,REF\u002A\u002A*%
X244000000Y-83000000D03*
%TD*%
D10*
%TO.C,R80*%
X47724607Y-88260393D03*
X46224607Y-88260393D03*
%TD*%
D22*
%TO.C,BAT1*%
X39852600Y-89611200D03*
%TD*%
D24*
%TO.C,Z14*%
X66962607Y-89276393D03*
X63562607Y-89276393D03*
%TD*%
D19*
%TO.C,C17*%
X219186608Y-92578393D03*
X216106608Y-92578393D03*
%TD*%
D45*
%TO.C,R37*%
X118110007Y-122169393D03*
X119710007Y-122169393D03*
%TD*%
D28*
%TO.C,Q21*%
X237993000Y-66574000D03*
D29*
X235713000Y-72874000D03*
D28*
X233433000Y-66574000D03*
%TD*%
D46*
%TO.C,D9*%
X91795600Y-135238200D03*
X91795600Y-133138200D03*
%TD*%
D19*
%TO.C,C57*%
X104902607Y-92578393D03*
X101822607Y-92578393D03*
%TD*%
D24*
%TO.C,Z12*%
X92362607Y-89276393D03*
X88962607Y-89276393D03*
%TD*%
D10*
%TO.C,R42*%
X86576600Y-118094600D03*
X85076600Y-118094600D03*
%TD*%
D33*
%TO.C,C1*%
X68613600Y-113309400D03*
X70273600Y-113309400D03*
%TD*%
D47*
%TO.C,Q1*%
X152701993Y-112136393D03*
D48*
X159250993Y-114422393D03*
D47*
X152701993Y-116708393D03*
%TD*%
D12*
%TO.C,R96*%
X163333393Y-132128207D03*
X163333393Y-133628207D03*
%TD*%
D26*
%TO.C,Q2*%
X233426000Y-86156800D03*
D27*
X235706000Y-79856800D03*
D26*
X237986000Y-86156800D03*
%TD*%
D18*
%TO.C,R47*%
X132657493Y-125509393D03*
X132657493Y-128509393D03*
%TD*%
D22*
%TO.C,FAULTH+1*%
X158232600Y-123170000D03*
%TD*%
D35*
%TO.C,LED1*%
X127290607Y-119045193D03*
X130290607Y-119045193D03*
%TD*%
D31*
%TO.C,REF\u002A\u002A*%
X42169993Y-59050393D03*
%TD*%
D10*
%TO.C,R77*%
X60424607Y-88260393D03*
X58924607Y-88260393D03*
%TD*%
%TO.C,R84*%
X60973400Y-120218200D03*
X59473400Y-120218200D03*
%TD*%
%TO.C,R36*%
X129056607Y-121331193D03*
X130556607Y-121331193D03*
%TD*%
D40*
%TO.C,R29*%
X130848007Y-131681593D03*
X130848007Y-130081593D03*
%TD*%
D22*
%TO.C,BAT8*%
X132572607Y-92578393D03*
%TD*%
D12*
%TO.C,R53*%
X74599800Y-113321400D03*
X74599800Y-114821400D03*
%TD*%
D18*
%TO.C,R43*%
X156818893Y-125204593D03*
X156818893Y-128204593D03*
%TD*%
D12*
%TO.C,R99*%
X165136792Y-132153608D03*
X165136792Y-133653608D03*
%TD*%
D24*
%TO.C,Z2*%
X219362607Y-89276393D03*
X215962607Y-89276393D03*
%TD*%
D26*
%TO.C,Q8*%
X157212600Y-86207600D03*
D27*
X159492600Y-79907600D03*
D26*
X161772600Y-86207600D03*
%TD*%
D18*
%TO.C,R49*%
X137788293Y-125509393D03*
X137788293Y-128509393D03*
%TD*%
D49*
%TO.C,C6*%
X164851993Y-114676394D03*
X164851993Y-113076394D03*
%TD*%
D22*
%TO.C,BAT15*%
X221472607Y-92578393D03*
%TD*%
D26*
%TO.C,Q7*%
X169855800Y-86207600D03*
D27*
X172135800Y-79907600D03*
D26*
X174415800Y-86207600D03*
%TD*%
D12*
%TO.C,R86*%
X174026792Y-132112407D03*
X174026792Y-133612407D03*
%TD*%
D10*
%TO.C,R74*%
X73124607Y-88260393D03*
X71624607Y-88260393D03*
%TD*%
D50*
%TO.C,C62*%
X46431200Y-89696800D03*
X46431200Y-92776800D03*
%TD*%
D18*
%TO.C,R44*%
X154177293Y-125204593D03*
X154177293Y-128204593D03*
%TD*%
D10*
%TO.C,R56*%
X149324607Y-88260393D03*
X147824607Y-88260393D03*
%TD*%
D20*
%TO.C,REF\u002A\u002A*%
X37414200Y-83000000D03*
%TD*%
D28*
%TO.C,Q32*%
X98293000Y-66573400D03*
D29*
X96013000Y-72873400D03*
D28*
X93733000Y-66573400D03*
%TD*%
D24*
%TO.C,Z4*%
X193962607Y-89276393D03*
X190562607Y-89276393D03*
%TD*%
D26*
%TO.C,Q14*%
X81158000Y-86207000D03*
D27*
X83438000Y-79907000D03*
D26*
X85718000Y-86207000D03*
%TD*%
%TO.C,Q15*%
X68306600Y-86207000D03*
D27*
X70586600Y-79907000D03*
D26*
X72866600Y-86207000D03*
%TD*%
D31*
%TO.C,REF\u002A\u002A*%
X240289993Y-59050393D03*
%TD*%
D22*
%TO.C,VDIG1*%
X174332807Y-111374393D03*
%TD*%
%TO.C,BAT16*%
X234172607Y-92578393D03*
%TD*%
%TO.C,COMMH-1*%
X147691600Y-123297000D03*
%TD*%
D26*
%TO.C,Q5*%
X195281200Y-86207600D03*
D27*
X197561200Y-79907600D03*
D26*
X199841200Y-86207600D03*
%TD*%
D19*
%TO.C,C29*%
X168402607Y-92578393D03*
X165322607Y-92578393D03*
%TD*%
D24*
%TO.C,Z5*%
X181262607Y-89276393D03*
X177862607Y-89276393D03*
%TD*%
D26*
%TO.C,Q12*%
X106433000Y-86207000D03*
D27*
X108713000Y-79907000D03*
D26*
X110993000Y-86207000D03*
%TD*%
D11*
%TO.C,D7*%
X124498007Y-115387593D03*
X124498007Y-112237593D03*
%TD*%
D22*
%TO.C,BAT9*%
X145272607Y-92578393D03*
%TD*%
D24*
%TO.C,Z8*%
X143162607Y-89276393D03*
X139762607Y-89276393D03*
%TD*%
D22*
%TO.C,BAT5*%
X94472607Y-92578393D03*
%TD*%
%TO.C,BAT0*%
X42849800Y-94183200D03*
%TD*%
D26*
%TO.C,Q4*%
X207987200Y-86165800D03*
D27*
X210267200Y-79865800D03*
D26*
X212547200Y-86165800D03*
%TD*%
D24*
%TO.C,Z13*%
X79662607Y-89276393D03*
X76262607Y-89276393D03*
%TD*%
D22*
%TO.C,BAT12*%
X183372607Y-92578393D03*
%TD*%
D24*
%TO.C,Z9*%
X130462607Y-89276393D03*
X127062607Y-89276393D03*
%TD*%
D22*
%TO.C,OUT1*%
X168407993Y-111374393D03*
%TD*%
%TO.C,FAULTH-1*%
X155438600Y-123170000D03*
%TD*%
D51*
%TO.C,J1*%
X178076600Y-138504000D03*
D52*
X180076600Y-138504000D03*
X178076600Y-136504000D03*
X180076600Y-136504000D03*
X178076600Y-134504000D03*
X180076600Y-134504000D03*
X178076600Y-132504000D03*
X180076600Y-132504000D03*
X178076600Y-130504000D03*
X180076600Y-130504000D03*
X178076600Y-128504000D03*
X180076600Y-128504000D03*
X178076600Y-126504000D03*
X180076600Y-126504000D03*
X178076600Y-124504000D03*
X180076600Y-124504000D03*
%TD*%
D53*
%TO.C,J6*%
X158088893Y-139201393D03*
X147668893Y-139201393D03*
%TD*%
D54*
%TO.C,J3*%
X94640400Y-118084600D03*
D55*
X94640400Y-115544600D03*
X92100400Y-118084600D03*
X92100400Y-115544600D03*
X89560400Y-118084600D03*
X89560400Y-115544600D03*
%TD*%
D56*
%TO.C,J2*%
X81928800Y-133731000D03*
X56928800Y-133731000D03*
D22*
X66658800Y-133431000D03*
X69428800Y-133431000D03*
X72198800Y-133431000D03*
X74968800Y-133431000D03*
X65273800Y-136271000D03*
X68043800Y-136271000D03*
X70813800Y-136271000D03*
X73583800Y-136271000D03*
%TD*%
D57*
%TO.C,J8*%
X100822607Y-57404000D03*
D58*
X105902607Y-57404000D03*
X110982607Y-57404000D03*
X116062607Y-57404000D03*
X121142607Y-57404000D03*
X126222607Y-57404000D03*
X131302607Y-57404000D03*
X136382607Y-57404000D03*
X141462607Y-57404000D03*
X146542607Y-57404000D03*
X151622607Y-57404000D03*
X156702607Y-57404000D03*
X161782607Y-57404000D03*
X166862607Y-57404000D03*
X171942607Y-57404000D03*
X177022607Y-57404000D03*
X182102607Y-57404000D03*
%TD*%
D59*
%TO.C,J5*%
X110930793Y-139147193D03*
X141509393Y-139175993D03*
%TD*%
D60*
%TO.C,J9*%
X94025600Y-133979800D03*
D61*
X93025600Y-131279800D03*
X88025600Y-131279800D03*
D60*
X87025600Y-133979800D03*
%TD*%
D54*
%TO.C,J10*%
X96977200Y-134650400D03*
D55*
X96977200Y-132110400D03*
%TD*%
M02*
