%TF.GenerationSoftware,KiCad,Pcbnew,7.0.5*%
%TF.CreationDate,2024-10-03T13:21:03+03:00*%
%TF.ProjectId,pasive_balance_rev4,70617369-7665-45f6-9261-6c616e63655f,rev?*%
%TF.SameCoordinates,Original*%
%TF.FileFunction,Paste,Top*%
%TF.FilePolarity,Positive*%
%FSLAX46Y46*%
G04 Gerber Fmt 4.6, Leading zero omitted, Abs format (unit mm)*
G04 Created by KiCad (PCBNEW 7.0.5) date 2024-10-03 13:21:03*
%MOMM*%
%LPD*%
G01*
G04 APERTURE LIST*
G04 Aperture macros list*
%AMRoundRect*
0 Rectangle with rounded corners*
0 $1 Rounding radius*
0 $2 $3 $4 $5 $6 $7 $8 $9 X,Y pos of 4 corners*
0 Add a 4 corners polygon primitive as box body*
4,1,4,$2,$3,$4,$5,$6,$7,$8,$9,$2,$3,0*
0 Add four circle primitives for the rounded corners*
1,1,$1+$1,$2,$3*
1,1,$1+$1,$4,$5*
1,1,$1+$1,$6,$7*
1,1,$1+$1,$8,$9*
0 Add four rect primitives between the rounded corners*
20,1,$1+$1,$2,$3,$4,$5,0*
20,1,$1+$1,$4,$5,$6,$7,0*
20,1,$1+$1,$6,$7,$8,$9,0*
20,1,$1+$1,$8,$9,$2,$3,0*%
G04 Aperture macros list end*
%ADD10R,0.850000X1.000000*%
%ADD11R,0.950000X0.900000*%
%ADD12R,1.000000X0.850000*%
%ADD13RoundRect,0.150000X-0.150000X0.825000X-0.150000X-0.825000X0.150000X-0.825000X0.150000X0.825000X0*%
%ADD14R,0.300000X1.475000*%
%ADD15R,1.475000X0.300000*%
%ADD16R,1.500000X2.000000*%
%ADD17R,3.800000X2.000000*%
%ADD18R,1.800000X1.050000*%
%ADD19R,0.830000X2.720000*%
%ADD20R,1.300000X0.600000*%
%ADD21R,1.200000X0.750000*%
%ADD22R,0.400000X0.650000*%
%ADD23RoundRect,0.250000X0.350000X-0.850000X0.350000X0.850000X-0.350000X0.850000X-0.350000X-0.850000X0*%
%ADD24RoundRect,0.250000X1.125000X-1.275000X1.125000X1.275000X-1.125000X1.275000X-1.125000X-1.275000X0*%
%ADD25RoundRect,0.250000X-0.350000X0.850000X-0.350000X-0.850000X0.350000X-0.850000X0.350000X0.850000X0*%
%ADD26RoundRect,0.250000X-1.125000X1.275000X-1.125000X-1.275000X1.125000X-1.275000X1.125000X1.275000X0*%
%ADD27R,0.600000X1.300000*%
%ADD28R,0.950000X1.000000*%
%ADD29R,0.970000X1.470000*%
%ADD30R,1.100000X1.750000*%
%ADD31R,0.650000X1.650000*%
%ADD32R,1.470000X0.970000*%
%ADD33R,1.200000X2.850000*%
%ADD34R,0.750000X1.200000*%
%ADD35R,0.950000X0.800000*%
%ADD36R,1.475000X0.700000*%
%ADD37R,0.900000X0.950000*%
%ADD38R,1.050000X1.800000*%
%ADD39RoundRect,0.250000X1.000000X0.650000X-1.000000X0.650000X-1.000000X-0.650000X1.000000X-0.650000X0*%
%ADD40R,0.800000X0.950000*%
%ADD41RoundRect,0.112500X0.112500X-0.187500X0.112500X0.187500X-0.112500X0.187500X-0.112500X-0.187500X0*%
%ADD42R,2.600000X1.060000*%
%ADD43R,5.700000X5.632000*%
%ADD44R,1.000000X0.950000*%
%ADD45R,2.720000X0.830000*%
G04 APERTURE END LIST*
D10*
%TO.C,R54*%
X74484800Y-129438400D03*
X75984800Y-129438400D03*
%TD*%
D11*
%TO.C,D8*%
X122085007Y-112237793D03*
X122085007Y-115387793D03*
%TD*%
D12*
%TO.C,R90*%
X170470793Y-132112407D03*
X170470793Y-133612407D03*
%TD*%
D13*
%TO.C,U1*%
X51485800Y-115239800D03*
X50215800Y-115239800D03*
X48945800Y-115239800D03*
X47675800Y-115239800D03*
X47675800Y-120189800D03*
X48945800Y-120189800D03*
X50215800Y-120189800D03*
X51485800Y-120189800D03*
%TD*%
D10*
%TO.C,R3*%
X165601993Y-110866393D03*
X164101993Y-110866393D03*
%TD*%
%TO.C,R19*%
X187424607Y-88260393D03*
X185924607Y-88260393D03*
%TD*%
D14*
%TO.C,IC1*%
X146212607Y-106160393D03*
X145712607Y-106160393D03*
X145212607Y-106160393D03*
X144712607Y-106160393D03*
X144212607Y-106160393D03*
X143712607Y-106160393D03*
X143212607Y-106160393D03*
X142712607Y-106160393D03*
X142212607Y-106160393D03*
X141712607Y-106160393D03*
X141212607Y-106160393D03*
X140712607Y-106160393D03*
X140212607Y-106160393D03*
X139712607Y-106160393D03*
X139212607Y-106160393D03*
X138712607Y-106160393D03*
X138212607Y-106160393D03*
X137712607Y-106160393D03*
X137212607Y-106160393D03*
X136712607Y-106160393D03*
D15*
X134724607Y-108148393D03*
X134724607Y-108648393D03*
X134724607Y-109148393D03*
X134724607Y-109648393D03*
X134724607Y-110148393D03*
X134724607Y-110648393D03*
X134724607Y-111148393D03*
X134724607Y-111648393D03*
X134724607Y-112148393D03*
X134724607Y-112648393D03*
X134724607Y-113148393D03*
X134724607Y-113648393D03*
X134724607Y-114148393D03*
X134724607Y-114648393D03*
X134724607Y-115148393D03*
X134724607Y-115648393D03*
X134724607Y-116148393D03*
X134724607Y-116648393D03*
X134724607Y-117148393D03*
X134724607Y-117648393D03*
D14*
X136712607Y-119636393D03*
X137212607Y-119636393D03*
X137712607Y-119636393D03*
X138212607Y-119636393D03*
X138712607Y-119636393D03*
X139212607Y-119636393D03*
X139712607Y-119636393D03*
X140212607Y-119636393D03*
X140712607Y-119636393D03*
X141212607Y-119636393D03*
X141712607Y-119636393D03*
X142212607Y-119636393D03*
X142712607Y-119636393D03*
X143212607Y-119636393D03*
X143712607Y-119636393D03*
X144212607Y-119636393D03*
X144712607Y-119636393D03*
X145212607Y-119636393D03*
X145712607Y-119636393D03*
X146212607Y-119636393D03*
D15*
X148200607Y-117648393D03*
X148200607Y-117148393D03*
X148200607Y-116648393D03*
X148200607Y-116148393D03*
X148200607Y-115648393D03*
X148200607Y-115148393D03*
X148200607Y-114648393D03*
X148200607Y-114148393D03*
X148200607Y-113648393D03*
X148200607Y-113148393D03*
X148200607Y-112648393D03*
X148200607Y-112148393D03*
X148200607Y-111648393D03*
X148200607Y-111148393D03*
X148200607Y-110648393D03*
X148200607Y-110148393D03*
X148200607Y-109648393D03*
X148200607Y-109148393D03*
X148200607Y-108648393D03*
X148200607Y-108148393D03*
%TD*%
D16*
%TO.C,U2*%
X90573800Y-127584200D03*
X92873800Y-127584200D03*
D17*
X92873800Y-121284200D03*
D16*
X95173800Y-127584200D03*
%TD*%
D10*
%TO.C,R16*%
X200124607Y-88260393D03*
X198624607Y-88260393D03*
%TD*%
D18*
%TO.C,R46*%
X149046493Y-125229993D03*
X149046493Y-128229993D03*
%TD*%
D19*
%TO.C,C55*%
X130302607Y-92578393D03*
X127222607Y-92578393D03*
%TD*%
D18*
%TO.C,R50*%
X140429893Y-125483993D03*
X140429893Y-128483993D03*
%TD*%
D20*
%TO.C,IC3*%
X122093207Y-120609793D03*
X122093207Y-122509793D03*
X124193207Y-121559793D03*
%TD*%
D18*
%TO.C,R48*%
X135197493Y-125483993D03*
X135197493Y-128483993D03*
%TD*%
D21*
%TO.C,Z6*%
X168562607Y-89276393D03*
X165162607Y-89276393D03*
%TD*%
D12*
%TO.C,R34*%
X124980607Y-129483193D03*
X124980607Y-130983193D03*
%TD*%
D19*
%TO.C,C25*%
X193802607Y-92578393D03*
X190722607Y-92578393D03*
%TD*%
%TO.C,C59*%
X79502607Y-92578393D03*
X76422607Y-92578393D03*
%TD*%
D22*
%TO.C,Q20*%
X87096600Y-124053600D03*
X87746600Y-124053600D03*
X88396600Y-124053600D03*
X88396600Y-122153600D03*
X87746600Y-122153600D03*
X87096600Y-122153600D03*
%TD*%
D23*
%TO.C,Q17*%
X42881200Y-86216600D03*
D24*
X43636200Y-81591600D03*
X46686200Y-81591600D03*
X43636200Y-78241600D03*
X46686200Y-78241600D03*
D23*
X47441200Y-86216600D03*
%TD*%
D10*
%TO.C,R62*%
X123912607Y-88260393D03*
X122412607Y-88260393D03*
%TD*%
D25*
%TO.C,Q29*%
X136340200Y-66573400D03*
D26*
X135585200Y-71198400D03*
X132535200Y-71198400D03*
X135585200Y-74548400D03*
X132535200Y-74548400D03*
D25*
X131780200Y-66573400D03*
%TD*%
D10*
%TO.C,R68*%
X98524607Y-88260393D03*
X97024607Y-88260393D03*
%TD*%
%TO.C,R22*%
X174736607Y-88260393D03*
X173236607Y-88260393D03*
%TD*%
D19*
%TO.C,C16*%
X231902607Y-92578393D03*
X228822607Y-92578393D03*
%TD*%
D27*
%TO.C,IC5*%
X118203807Y-120289793D03*
X120103807Y-120289793D03*
X119153807Y-118189793D03*
%TD*%
D19*
%TO.C,C32*%
X155702607Y-92578393D03*
X152622607Y-92578393D03*
%TD*%
D10*
%TO.C,R41*%
X86576600Y-115544600D03*
X85076600Y-115544600D03*
%TD*%
D18*
%TO.C,R45*%
X151611893Y-125229993D03*
X151611893Y-128229993D03*
%TD*%
D21*
%TO.C,Z11*%
X105062607Y-89276393D03*
X101662607Y-89276393D03*
%TD*%
D12*
%TO.C,R100*%
X161555393Y-132128207D03*
X161555393Y-133628207D03*
%TD*%
D19*
%TO.C,C61*%
X54102607Y-92578393D03*
X51022607Y-92578393D03*
%TD*%
D23*
%TO.C,Q16*%
X55607600Y-86207000D03*
D24*
X56362600Y-81582000D03*
X59412600Y-81582000D03*
X56362600Y-78232000D03*
X59412600Y-78232000D03*
D23*
X60167600Y-86207000D03*
%TD*%
D21*
%TO.C,Z1*%
X232062607Y-89276393D03*
X228662607Y-89276393D03*
%TD*%
D25*
%TO.C,Q36*%
X47442200Y-66573400D03*
D26*
X46687200Y-71198400D03*
X43637200Y-71198400D03*
X46687200Y-74548400D03*
X43637200Y-74548400D03*
D25*
X42882200Y-66573400D03*
%TD*%
D28*
%TO.C,C50*%
X127597007Y-113355593D03*
X129197007Y-113355593D03*
%TD*%
D25*
%TO.C,Q25*%
X187114800Y-66573400D03*
D26*
X186359800Y-71198400D03*
X183309800Y-71198400D03*
X186359800Y-74548400D03*
X183309800Y-74548400D03*
D25*
X182554800Y-66573400D03*
%TD*%
%TO.C,Q30*%
X123590400Y-66573400D03*
D26*
X122835400Y-71198400D03*
X119785400Y-71198400D03*
X122835400Y-74548400D03*
X119785400Y-74548400D03*
D25*
X119030400Y-66573400D03*
%TD*%
D23*
%TO.C,Q3*%
X220655800Y-86165800D03*
D24*
X221410800Y-81540800D03*
X224460800Y-81540800D03*
X221410800Y-78190800D03*
X224460800Y-78190800D03*
D23*
X225215800Y-86165800D03*
%TD*%
D25*
%TO.C,Q34*%
X72867600Y-66573400D03*
D26*
X72112600Y-71198400D03*
X69062600Y-71198400D03*
X72112600Y-74548400D03*
X69062600Y-74548400D03*
D25*
X68307600Y-66573400D03*
%TD*%
D29*
%TO.C,C3*%
X70273600Y-127584200D03*
X68613600Y-127584200D03*
%TD*%
D23*
%TO.C,Q6*%
X182561800Y-86207600D03*
D24*
X183316800Y-81582600D03*
X186366800Y-81582600D03*
X183316800Y-78232600D03*
X186366800Y-78232600D03*
D23*
X187121800Y-86207600D03*
%TD*%
D12*
%TO.C,R92*%
X168692793Y-132128207D03*
X168692793Y-133628207D03*
%TD*%
D21*
%TO.C,Z7*%
X155862607Y-89276393D03*
X152462607Y-89276393D03*
%TD*%
D27*
%TO.C,D3*%
X124660607Y-125869193D03*
X122760607Y-125869193D03*
X123710607Y-127969193D03*
%TD*%
D10*
%TO.C,R7*%
X236700607Y-88260393D03*
X235200607Y-88260393D03*
%TD*%
D12*
%TO.C,R95*%
X166889393Y-132114808D03*
X166889393Y-133614808D03*
%TD*%
D23*
%TO.C,Q9*%
X144461800Y-86207600D03*
D24*
X145216800Y-81582600D03*
X148266800Y-81582600D03*
X145216800Y-78232600D03*
X148266800Y-78232600D03*
D23*
X149021800Y-86207600D03*
%TD*%
D30*
%TO.C,LED3*%
X127290607Y-116251193D03*
X130290607Y-116251193D03*
%TD*%
D10*
%TO.C,R65*%
X111224607Y-88260393D03*
X109724607Y-88260393D03*
%TD*%
D25*
%TO.C,Q33*%
X85718000Y-66573400D03*
D26*
X84963000Y-71198400D03*
X81913000Y-71198400D03*
X84963000Y-74548400D03*
X81913000Y-74548400D03*
D25*
X81158000Y-66573400D03*
%TD*%
D10*
%TO.C,R10*%
X225524607Y-88260393D03*
X224024607Y-88260393D03*
%TD*%
D31*
%TO.C,Q19*%
X119773607Y-124229193D03*
X118503607Y-124229193D03*
X118503607Y-130729193D03*
X119773607Y-130729193D03*
%TD*%
D19*
%TO.C,C28*%
X181102607Y-92578393D03*
X178022607Y-92578393D03*
%TD*%
D10*
%TO.C,R71*%
X85824607Y-88260393D03*
X84324607Y-88260393D03*
%TD*%
D25*
%TO.C,Q22*%
X225221800Y-66573400D03*
D26*
X224466800Y-71198400D03*
X221416800Y-71198400D03*
X224466800Y-74548400D03*
X221416800Y-74548400D03*
D25*
X220661800Y-66573400D03*
%TD*%
D21*
%TO.C,Z3*%
X206662607Y-89276393D03*
X203262607Y-89276393D03*
%TD*%
D19*
%TO.C,C60*%
X66802607Y-92578393D03*
X63722607Y-92578393D03*
%TD*%
D21*
%TO.C,Z10*%
X117762607Y-89276393D03*
X114362607Y-89276393D03*
%TD*%
D25*
%TO.C,Q35*%
X60172600Y-66573400D03*
D26*
X59417600Y-71198400D03*
X56367600Y-71198400D03*
X59417600Y-74548400D03*
X56367600Y-74548400D03*
D25*
X55612600Y-66573400D03*
%TD*%
D32*
%TO.C,C2*%
X85013800Y-129201600D03*
X85013800Y-127541600D03*
%TD*%
%TO.C,C11*%
X88214200Y-125839800D03*
X88214200Y-127499800D03*
%TD*%
D33*
%TO.C,L2*%
X50876200Y-124612400D03*
X50876200Y-131962400D03*
X48376200Y-124612400D03*
X48376200Y-131962400D03*
%TD*%
D12*
%TO.C,R88*%
X172248793Y-132112407D03*
X172248793Y-133612407D03*
%TD*%
D10*
%TO.C,R25*%
X162024607Y-88260393D03*
X160524607Y-88260393D03*
%TD*%
D25*
%TO.C,Q28*%
X149016800Y-66573400D03*
D26*
X148261800Y-71198400D03*
X145211800Y-71198400D03*
X148261800Y-74548400D03*
X145211800Y-74548400D03*
D25*
X144456800Y-66573400D03*
%TD*%
D34*
%TO.C,Z16*%
X43053000Y-88546200D03*
X43053000Y-91946200D03*
%TD*%
D25*
%TO.C,Q27*%
X161767600Y-66573400D03*
D26*
X161012600Y-71198400D03*
X157962600Y-71198400D03*
X161012600Y-74548400D03*
X157962600Y-74548400D03*
D25*
X157207600Y-66573400D03*
%TD*%
D31*
%TO.C,Q18*%
X127520607Y-130931193D03*
X128790607Y-130931193D03*
X128790607Y-124431193D03*
X127520607Y-124431193D03*
%TD*%
D10*
%TO.C,R59*%
X136624607Y-88260393D03*
X135124607Y-88260393D03*
%TD*%
D23*
%TO.C,Q10*%
X131782200Y-86207000D03*
D24*
X132537200Y-81582000D03*
X135587200Y-81582000D03*
X132537200Y-78232000D03*
X135587200Y-78232000D03*
D23*
X136342200Y-86207000D03*
%TD*%
D35*
%TO.C,R28*%
X130721007Y-125991993D03*
X130721007Y-124391993D03*
%TD*%
D19*
%TO.C,C34*%
X143002607Y-92578393D03*
X139922607Y-92578393D03*
%TD*%
D25*
%TO.C,Q31*%
X110998000Y-66548000D03*
D26*
X110243000Y-71173000D03*
X107193000Y-71173000D03*
X110243000Y-74523000D03*
X107193000Y-74523000D03*
D25*
X106438000Y-66548000D03*
%TD*%
%TO.C,Q26*%
X174414800Y-66573400D03*
D26*
X173659800Y-71198400D03*
X170609800Y-71198400D03*
X173659800Y-74548400D03*
X170609800Y-74548400D03*
D25*
X169854800Y-66573400D03*
%TD*%
D19*
%TO.C,C56*%
X117602607Y-92578393D03*
X114522607Y-92578393D03*
%TD*%
%TO.C,C58*%
X92202607Y-92578393D03*
X89122607Y-92578393D03*
%TD*%
D36*
%TO.C,S1*%
X164221007Y-120645393D03*
X164221007Y-121915393D03*
X164221007Y-123185393D03*
X164221007Y-124455393D03*
X171897007Y-124455393D03*
X171897007Y-123185393D03*
X171897007Y-121915393D03*
X171897007Y-120645393D03*
%TD*%
D23*
%TO.C,Q11*%
X119031400Y-86207000D03*
D24*
X119786400Y-81582000D03*
X122836400Y-81582000D03*
X119786400Y-78232000D03*
X122836400Y-78232000D03*
D23*
X123591400Y-86207000D03*
%TD*%
D10*
%TO.C,R13*%
X212824607Y-88260393D03*
X211324607Y-88260393D03*
%TD*%
D25*
%TO.C,Q24*%
X199842200Y-66573400D03*
D26*
X199087200Y-71198400D03*
X196037200Y-71198400D03*
X199087200Y-74548400D03*
X196037200Y-74548400D03*
D25*
X195282200Y-66573400D03*
%TD*%
D19*
%TO.C,C24*%
X206502607Y-92578393D03*
X203422607Y-92578393D03*
%TD*%
D25*
%TO.C,Q23*%
X212565600Y-66573400D03*
D26*
X211810600Y-71198400D03*
X208760600Y-71198400D03*
X211810600Y-74548400D03*
X208760600Y-74548400D03*
D25*
X208005600Y-66573400D03*
%TD*%
D37*
%TO.C,D5*%
X153497993Y-107437393D03*
X156647993Y-107437393D03*
%TD*%
D38*
%TO.C,R27*%
X135370607Y-123109193D03*
X132370607Y-123109193D03*
%TD*%
D11*
%TO.C,D1*%
X115989007Y-122067793D03*
X115989007Y-118917793D03*
%TD*%
D23*
%TO.C,Q13*%
X93738000Y-86207600D03*
D24*
X94493000Y-81582600D03*
X97543000Y-81582600D03*
X94493000Y-78232600D03*
X97543000Y-78232600D03*
D23*
X98298000Y-86207600D03*
%TD*%
D39*
%TO.C,D6*%
X143478000Y-53594000D03*
X139478000Y-53594000D03*
%TD*%
D21*
%TO.C,Z15*%
X54262607Y-89276393D03*
X50862607Y-89276393D03*
%TD*%
D10*
%TO.C,R80*%
X47724607Y-88260393D03*
X46224607Y-88260393D03*
%TD*%
D21*
%TO.C,Z14*%
X66962607Y-89276393D03*
X63562607Y-89276393D03*
%TD*%
D19*
%TO.C,C17*%
X219186608Y-92578393D03*
X216106608Y-92578393D03*
%TD*%
D40*
%TO.C,R37*%
X118110007Y-122169393D03*
X119710007Y-122169393D03*
%TD*%
D25*
%TO.C,Q21*%
X237993000Y-66574000D03*
D26*
X237238000Y-71199000D03*
X234188000Y-71199000D03*
X237238000Y-74549000D03*
X234188000Y-74549000D03*
D25*
X233433000Y-66574000D03*
%TD*%
D41*
%TO.C,D9*%
X91795600Y-135238200D03*
X91795600Y-133138200D03*
%TD*%
D19*
%TO.C,C57*%
X104902607Y-92578393D03*
X101822607Y-92578393D03*
%TD*%
D21*
%TO.C,Z12*%
X92362607Y-89276393D03*
X88962607Y-89276393D03*
%TD*%
D10*
%TO.C,R42*%
X86576600Y-118094600D03*
X85076600Y-118094600D03*
%TD*%
D29*
%TO.C,C1*%
X68613600Y-113309400D03*
X70273600Y-113309400D03*
%TD*%
D42*
%TO.C,Q1*%
X152701993Y-112136393D03*
D43*
X159250993Y-114422393D03*
D42*
X152701993Y-116708393D03*
%TD*%
D12*
%TO.C,R96*%
X163333393Y-132128207D03*
X163333393Y-133628207D03*
%TD*%
D23*
%TO.C,Q2*%
X233426000Y-86156800D03*
D24*
X234181000Y-81531800D03*
X237231000Y-81531800D03*
X234181000Y-78181800D03*
X237231000Y-78181800D03*
D23*
X237986000Y-86156800D03*
%TD*%
D18*
%TO.C,R47*%
X132657493Y-125509393D03*
X132657493Y-128509393D03*
%TD*%
D30*
%TO.C,LED1*%
X127290607Y-119045193D03*
X130290607Y-119045193D03*
%TD*%
D10*
%TO.C,R77*%
X60424607Y-88260393D03*
X58924607Y-88260393D03*
%TD*%
%TO.C,R84*%
X60973400Y-120218200D03*
X59473400Y-120218200D03*
%TD*%
%TO.C,R36*%
X129056607Y-121331193D03*
X130556607Y-121331193D03*
%TD*%
D35*
%TO.C,R29*%
X130848007Y-131681593D03*
X130848007Y-130081593D03*
%TD*%
D12*
%TO.C,R53*%
X74599800Y-113321400D03*
X74599800Y-114821400D03*
%TD*%
D18*
%TO.C,R43*%
X156818893Y-125204593D03*
X156818893Y-128204593D03*
%TD*%
D12*
%TO.C,R99*%
X165136792Y-132153608D03*
X165136792Y-133653608D03*
%TD*%
D21*
%TO.C,Z2*%
X219362607Y-89276393D03*
X215962607Y-89276393D03*
%TD*%
D23*
%TO.C,Q8*%
X157212600Y-86207600D03*
D24*
X157967600Y-81582600D03*
X161017600Y-81582600D03*
X157967600Y-78232600D03*
X161017600Y-78232600D03*
D23*
X161772600Y-86207600D03*
%TD*%
D18*
%TO.C,R49*%
X137788293Y-125509393D03*
X137788293Y-128509393D03*
%TD*%
D44*
%TO.C,C6*%
X164851993Y-114676394D03*
X164851993Y-113076394D03*
%TD*%
D23*
%TO.C,Q7*%
X169855800Y-86207600D03*
D24*
X170610800Y-81582600D03*
X173660800Y-81582600D03*
X170610800Y-78232600D03*
X173660800Y-78232600D03*
D23*
X174415800Y-86207600D03*
%TD*%
D12*
%TO.C,R86*%
X174026792Y-132112407D03*
X174026792Y-133612407D03*
%TD*%
D10*
%TO.C,R74*%
X73124607Y-88260393D03*
X71624607Y-88260393D03*
%TD*%
D45*
%TO.C,C62*%
X46431200Y-89696800D03*
X46431200Y-92776800D03*
%TD*%
D18*
%TO.C,R44*%
X154177293Y-125204593D03*
X154177293Y-128204593D03*
%TD*%
D10*
%TO.C,R56*%
X149324607Y-88260393D03*
X147824607Y-88260393D03*
%TD*%
D25*
%TO.C,Q32*%
X98293000Y-66573400D03*
D26*
X97538000Y-71198400D03*
X94488000Y-71198400D03*
X97538000Y-74548400D03*
X94488000Y-74548400D03*
D25*
X93733000Y-66573400D03*
%TD*%
D21*
%TO.C,Z4*%
X193962607Y-89276393D03*
X190562607Y-89276393D03*
%TD*%
D23*
%TO.C,Q14*%
X81158000Y-86207000D03*
D24*
X81913000Y-81582000D03*
X84963000Y-81582000D03*
X81913000Y-78232000D03*
X84963000Y-78232000D03*
D23*
X85718000Y-86207000D03*
%TD*%
%TO.C,Q15*%
X68306600Y-86207000D03*
D24*
X69061600Y-81582000D03*
X72111600Y-81582000D03*
X69061600Y-78232000D03*
X72111600Y-78232000D03*
D23*
X72866600Y-86207000D03*
%TD*%
%TO.C,Q5*%
X195281200Y-86207600D03*
D24*
X196036200Y-81582600D03*
X199086200Y-81582600D03*
X196036200Y-78232600D03*
X199086200Y-78232600D03*
D23*
X199841200Y-86207600D03*
%TD*%
D19*
%TO.C,C29*%
X168402607Y-92578393D03*
X165322607Y-92578393D03*
%TD*%
D21*
%TO.C,Z5*%
X181262607Y-89276393D03*
X177862607Y-89276393D03*
%TD*%
D23*
%TO.C,Q12*%
X106433000Y-86207000D03*
D24*
X107188000Y-81582000D03*
X110238000Y-81582000D03*
X107188000Y-78232000D03*
X110238000Y-78232000D03*
D23*
X110993000Y-86207000D03*
%TD*%
D11*
%TO.C,D7*%
X124498007Y-115387593D03*
X124498007Y-112237593D03*
%TD*%
D21*
%TO.C,Z8*%
X143162607Y-89276393D03*
X139762607Y-89276393D03*
%TD*%
D23*
%TO.C,Q4*%
X207987200Y-86165800D03*
D24*
X208742200Y-81540800D03*
X211792200Y-81540800D03*
X208742200Y-78190800D03*
X211792200Y-78190800D03*
D23*
X212547200Y-86165800D03*
%TD*%
D21*
%TO.C,Z13*%
X79662607Y-89276393D03*
X76262607Y-89276393D03*
%TD*%
%TO.C,Z9*%
X130462607Y-89276393D03*
X127062607Y-89276393D03*
%TD*%
M02*
