%TF.GenerationSoftware,KiCad,Pcbnew,7.0.5*%
%TF.CreationDate,2024-10-03T13:21:03+03:00*%
%TF.ProjectId,pasive_balance_rev4,70617369-7665-45f6-9261-6c616e63655f,rev?*%
%TF.SameCoordinates,Original*%
%TF.FileFunction,Soldermask,Bot*%
%TF.FilePolarity,Negative*%
%FSLAX46Y46*%
G04 Gerber Fmt 4.6, Leading zero omitted, Abs format (unit mm)*
G04 Created by KiCad (PCBNEW 7.0.5) date 2024-10-03 13:21:03*
%MOMM*%
%LPD*%
G01*
G04 APERTURE LIST*
G04 Aperture macros list*
%AMRoundRect*
0 Rectangle with rounded corners*
0 $1 Rounding radius*
0 $2 $3 $4 $5 $6 $7 $8 $9 X,Y pos of 4 corners*
0 Add a 4 corners polygon primitive as box body*
4,1,4,$2,$3,$4,$5,$6,$7,$8,$9,$2,$3,0*
0 Add four circle primitives for the rounded corners*
1,1,$1+$1,$2,$3*
1,1,$1+$1,$4,$5*
1,1,$1+$1,$6,$7*
1,1,$1+$1,$8,$9*
0 Add four rect primitives between the rounded corners*
20,1,$1+$1,$2,$3,$4,$5,0*
20,1,$1+$1,$4,$5,$6,$7,0*
20,1,$1+$1,$6,$7,$8,$9,0*
20,1,$1+$1,$8,$9,$2,$3,0*%
G04 Aperture macros list end*
%ADD10C,3.200000*%
%ADD11C,1.600000*%
%ADD12C,5.700000*%
%ADD13R,0.800000X0.950000*%
%ADD14R,1.500000X4.500000*%
%ADD15R,1.470000X0.970000*%
%ADD16R,0.900000X0.950000*%
%ADD17R,0.950000X0.800000*%
%ADD18R,0.940000X0.540000*%
%ADD19R,0.850000X1.000000*%
%ADD20R,1.800000X1.100000*%
%ADD21R,1.820000X1.070000*%
%ADD22R,1.000000X0.850000*%
%ADD23R,0.950000X1.000000*%
%ADD24R,1.000000X0.950000*%
%ADD25R,0.500000X1.100000*%
%ADD26R,1.500000X1.000000*%
%ADD27R,1.450000X1.150000*%
%ADD28R,4.150000X4.650000*%
%ADD29R,1.350000X1.350000*%
%ADD30O,1.350000X1.350000*%
%ADD31C,3.810000*%
%ADD32R,1.650000X5.330000*%
%ADD33R,1.700000X1.700000*%
%ADD34O,1.700000X1.700000*%
%ADD35R,1.150000X1.450000*%
%ADD36R,2.700000X1.150000*%
%ADD37R,1.100000X1.750000*%
%ADD38R,0.970000X1.470000*%
%ADD39C,4.000000*%
%ADD40R,1.630000X1.530000*%
%ADD41R,2.200000X3.150000*%
%ADD42R,0.540000X0.940000*%
%ADD43R,0.900000X1.500000*%
%ADD44R,1.500000X0.900000*%
%ADD45R,0.900000X0.900000*%
%ADD46RoundRect,0.150000X0.150000X-0.650000X0.150000X0.650000X-0.150000X0.650000X-0.150000X-0.650000X0*%
%ADD47R,3.200000X2.400000*%
%ADD48R,2.100000X2.100000*%
%ADD49C,2.100000*%
%ADD50R,2.200000X4.400000*%
%ADD51R,1.050000X1.800000*%
%ADD52C,3.760000*%
%ADD53R,2.000000X4.000000*%
%ADD54R,0.400000X1.350000*%
%ADD55O,1.000000X1.550000*%
%ADD56O,1.250000X0.950000*%
%ADD57R,1.020000X1.470000*%
%ADD58RoundRect,0.150000X-0.150000X0.825000X-0.150000X-0.825000X0.150000X-0.825000X0.150000X0.825000X0*%
G04 APERTURE END LIST*
D10*
%TO.C,REF\u002A\u002A*%
X37414200Y-66000000D03*
%TD*%
D11*
%TO.C,VREF1*%
X171361007Y-111374393D03*
%TD*%
%TO.C,CHP1*%
X119164007Y-113457193D03*
%TD*%
D10*
%TO.C,REF\u002A\u002A*%
X244000000Y-66000000D03*
%TD*%
D11*
%TO.C,BAT2*%
X56372607Y-92578393D03*
%TD*%
%TO.C,BAT6*%
X107172607Y-92578393D03*
%TD*%
%TO.C,VP1*%
X177253807Y-111374393D03*
%TD*%
%TO.C,BAT7*%
X119872607Y-92578393D03*
%TD*%
D12*
%TO.C,REF\u002A\u002A*%
X42169993Y-134862393D03*
%TD*%
D11*
%TO.C,BAT3*%
X69072607Y-92578393D03*
%TD*%
%TO.C,BAT13*%
X196072607Y-92578393D03*
%TD*%
%TO.C,BAT10*%
X157972607Y-92578393D03*
%TD*%
%TO.C,BAT4*%
X81772607Y-92578393D03*
%TD*%
%TO.C,V5VA0*%
X143500600Y-128504000D03*
%TD*%
%TO.C,BAT14*%
X208772607Y-92578393D03*
%TD*%
%TO.C,BAT11*%
X170672607Y-92578393D03*
%TD*%
D12*
%TO.C,REF\u002A\u002A*%
X240289993Y-134716607D03*
%TD*%
D11*
%TO.C,COMMH+1*%
X150358600Y-123297000D03*
%TD*%
D10*
%TO.C,REF\u002A\u002A*%
X244000000Y-83000000D03*
%TD*%
D11*
%TO.C,BAT1*%
X39852600Y-89611200D03*
%TD*%
%TO.C,FAULTH+1*%
X158232600Y-123170000D03*
%TD*%
D12*
%TO.C,REF\u002A\u002A*%
X42169993Y-59050393D03*
%TD*%
D11*
%TO.C,BAT8*%
X132572607Y-92578393D03*
%TD*%
%TO.C,BAT15*%
X221472607Y-92578393D03*
%TD*%
D10*
%TO.C,REF\u002A\u002A*%
X37414200Y-83000000D03*
%TD*%
D12*
%TO.C,REF\u002A\u002A*%
X240289993Y-59050393D03*
%TD*%
D11*
%TO.C,VDIG1*%
X174332807Y-111374393D03*
%TD*%
%TO.C,BAT16*%
X234172607Y-92578393D03*
%TD*%
%TO.C,COMMH-1*%
X147691600Y-123297000D03*
%TD*%
%TO.C,BAT9*%
X145272607Y-92578393D03*
%TD*%
%TO.C,BAT5*%
X94472607Y-92578393D03*
%TD*%
%TO.C,BAT0*%
X42849800Y-94183200D03*
%TD*%
%TO.C,BAT12*%
X183372607Y-92578393D03*
%TD*%
%TO.C,OUT1*%
X168407993Y-111374393D03*
%TD*%
D13*
%TO.C,R21*%
X184896607Y-88260393D03*
X183296607Y-88260393D03*
%TD*%
D14*
%TO.C,L1*%
X217654000Y-126263400D03*
X214654000Y-126263400D03*
%TD*%
D15*
%TO.C,C49*%
X168795607Y-118020993D03*
X168795607Y-116360993D03*
%TD*%
D16*
%TO.C,LED2*%
X154171993Y-120010393D03*
X152671993Y-120010393D03*
%TD*%
D17*
%TO.C,R103*%
X218363800Y-114185600D03*
X218363800Y-112585600D03*
%TD*%
D13*
%TO.C,R12*%
X210334607Y-88260393D03*
X208734607Y-88260393D03*
%TD*%
D18*
%TO.C,C12*%
X171180394Y-130741607D03*
X171180394Y-129141607D03*
%TD*%
%TO.C,C54*%
X122085007Y-112466794D03*
X122085007Y-114066794D03*
%TD*%
D19*
%TO.C,R35*%
X136144607Y-119553193D03*
X134644607Y-119553193D03*
%TD*%
D13*
%TO.C,R30*%
X235734607Y-88260393D03*
X234134607Y-88260393D03*
%TD*%
D20*
%TO.C,S2*%
X72416600Y-111180000D03*
X66216600Y-111180000D03*
X72416600Y-114880000D03*
X66216600Y-114880000D03*
%TD*%
D13*
%TO.C,R58*%
X146796607Y-88260393D03*
X145196607Y-88260393D03*
%TD*%
%TO.C,R5*%
X164109407Y-116759193D03*
X165709407Y-116759193D03*
%TD*%
D11*
%TO.C,FAULTH-1*%
X155438600Y-123170000D03*
%TD*%
D21*
%TO.C,C10*%
X158501993Y-115294393D03*
X158501993Y-112534393D03*
%TD*%
D13*
%TO.C,R102*%
X219036800Y-110998000D03*
X217436800Y-110998000D03*
%TD*%
D22*
%TO.C,R11*%
X213852607Y-89760393D03*
X213852607Y-88260393D03*
%TD*%
D23*
%TO.C,C9*%
X138727993Y-117216393D03*
X137127993Y-117216393D03*
%TD*%
D24*
%TO.C,C53*%
X137452007Y-112898594D03*
X137452007Y-114498594D03*
%TD*%
D22*
%TO.C,R106*%
X52044600Y-131228400D03*
X52044600Y-132728400D03*
%TD*%
D19*
%TO.C,R1*%
X128802607Y-116251193D03*
X130302607Y-116251193D03*
%TD*%
D17*
%TO.C,R39*%
X171919807Y-121546993D03*
X171919807Y-119946993D03*
%TD*%
D25*
%TO.C,D11*%
X135184793Y-124774193D03*
X135184793Y-122474193D03*
%TD*%
D26*
%TO.C,JP1*%
X49580800Y-131125200D03*
X49580800Y-132425200D03*
%TD*%
D13*
%TO.C,R24*%
X172272606Y-88260393D03*
X170672606Y-88260393D03*
%TD*%
D18*
%TO.C,C15*%
X168489594Y-130728807D03*
X168489594Y-129128807D03*
%TD*%
D27*
%TO.C,D19*%
X240837200Y-116325200D03*
X238867200Y-116325200D03*
D28*
X239852200Y-120075200D03*
%TD*%
D13*
%TO.C,R15*%
X223034607Y-88260393D03*
X221434607Y-88260393D03*
%TD*%
D22*
%TO.C,R33*%
X131838607Y-116239193D03*
X131838607Y-114739193D03*
%TD*%
%TO.C,R87*%
X172223394Y-132108607D03*
X172223394Y-133608607D03*
%TD*%
D13*
%TO.C,R101*%
X222351600Y-110998000D03*
X220751600Y-110998000D03*
%TD*%
D22*
%TO.C,R66*%
X112252607Y-89760393D03*
X112252607Y-88260393D03*
%TD*%
D29*
%TO.C,J1*%
X178076600Y-138504000D03*
D30*
X180076600Y-138504000D03*
X178076600Y-136504000D03*
X180076600Y-136504000D03*
X178076600Y-134504000D03*
X180076600Y-134504000D03*
X178076600Y-132504000D03*
X180076600Y-132504000D03*
X178076600Y-130504000D03*
X180076600Y-130504000D03*
X178076600Y-128504000D03*
X180076600Y-128504000D03*
X178076600Y-126504000D03*
X180076600Y-126504000D03*
X178076600Y-124504000D03*
X180076600Y-124504000D03*
%TD*%
D19*
%TO.C,R51*%
X128778607Y-122448793D03*
X127278607Y-122448793D03*
%TD*%
D24*
%TO.C,C52*%
X137452007Y-108720193D03*
X137452007Y-110320193D03*
%TD*%
D22*
%TO.C,R85*%
X174001394Y-132108607D03*
X174001394Y-133608607D03*
%TD*%
%TO.C,R98*%
X161555394Y-132136407D03*
X161555394Y-133636407D03*
%TD*%
%TO.C,R97*%
X165111393Y-132124408D03*
X165111393Y-133624408D03*
%TD*%
D31*
%TO.C,J6*%
X158088893Y-139201393D03*
X147668893Y-139201393D03*
D32*
X149068893Y-128512393D03*
X151608893Y-128512393D03*
X154148893Y-128512393D03*
X156688893Y-128512393D03*
%TD*%
D18*
%TO.C,C13*%
X169835794Y-130728807D03*
X169835794Y-129128807D03*
%TD*%
D22*
%TO.C,R91*%
X168667394Y-132112407D03*
X168667394Y-133612407D03*
%TD*%
D33*
%TO.C,J3*%
X94640400Y-118084600D03*
D34*
X94640400Y-115544600D03*
X92100400Y-118084600D03*
X92100400Y-115544600D03*
X89560400Y-118084600D03*
X89560400Y-115544600D03*
%TD*%
D25*
%TO.C,D2*%
X140417193Y-124755793D03*
X140417193Y-122455793D03*
%TD*%
D35*
%TO.C,C4*%
X143638607Y-108192393D03*
X145438607Y-108192393D03*
%TD*%
D22*
%TO.C,R17*%
X201152607Y-89784393D03*
X201152607Y-88284393D03*
%TD*%
D25*
%TO.C,D13*%
X149053193Y-124374793D03*
X149053193Y-122074793D03*
%TD*%
D22*
%TO.C,R107*%
X47345600Y-131228400D03*
X47345600Y-132728400D03*
%TD*%
%TO.C,R75*%
X74152607Y-89772393D03*
X74152607Y-88272393D03*
%TD*%
%TO.C,R63*%
X124952607Y-89760393D03*
X124952607Y-88260393D03*
%TD*%
D25*
%TO.C,D16*%
X156800193Y-124393193D03*
X156800193Y-122093193D03*
%TD*%
D21*
%TO.C,C14*%
X154571607Y-115294393D03*
X154571607Y-112534393D03*
%TD*%
D22*
%TO.C,R23*%
X175752607Y-89784393D03*
X175752607Y-88284393D03*
%TD*%
D25*
%TO.C,D12*%
X132670193Y-124762793D03*
X132670193Y-122462793D03*
%TD*%
D36*
%TO.C,C7*%
X141462607Y-114398393D03*
X141462607Y-111398393D03*
%TD*%
D25*
%TO.C,D15*%
X154158593Y-124367793D03*
X154158593Y-122067793D03*
%TD*%
D24*
%TO.C,C30*%
X46761400Y-136512200D03*
X46761400Y-134912200D03*
%TD*%
D25*
%TO.C,D14*%
X151618593Y-124374793D03*
X151618593Y-122074793D03*
%TD*%
D22*
%TO.C,R4*%
X160533993Y-113684393D03*
X160533993Y-115184393D03*
%TD*%
D37*
%TO.C,LED4*%
X69343400Y-120573800D03*
X66343400Y-120573800D03*
%TD*%
D38*
%TO.C,C51*%
X126952806Y-110942593D03*
X128612806Y-110942593D03*
%TD*%
D22*
%TO.C,R72*%
X86852607Y-89760393D03*
X86852607Y-88260393D03*
%TD*%
%TO.C,R69*%
X99552607Y-89760393D03*
X99552607Y-88260393D03*
%TD*%
D39*
%TO.C,J2*%
X81928800Y-133731000D03*
X56928800Y-133731000D03*
D11*
X66658800Y-133431000D03*
X69428800Y-133431000D03*
X72198800Y-133431000D03*
X74968800Y-133431000D03*
X65273800Y-136271000D03*
X68043800Y-136271000D03*
X70813800Y-136271000D03*
X73583800Y-136271000D03*
%TD*%
D13*
%TO.C,R76*%
X70634607Y-88260393D03*
X69034607Y-88260393D03*
%TD*%
D22*
%TO.C,R32*%
X131838607Y-117787193D03*
X131838607Y-119287193D03*
%TD*%
D40*
%TO.C,D17*%
X221462600Y-123880800D03*
X221462600Y-127680800D03*
%TD*%
D13*
%TO.C,R61*%
X134134607Y-88260393D03*
X132534607Y-88260393D03*
%TD*%
%TO.C,R79*%
X57896607Y-88260393D03*
X56296607Y-88260393D03*
%TD*%
D41*
%TO.C,D18*%
X241726600Y-110769400D03*
X234726600Y-110769400D03*
%TD*%
D13*
%TO.C,R104*%
X214769800Y-121386600D03*
X216369800Y-121386600D03*
%TD*%
D17*
%TO.C,R8*%
X152659993Y-115222393D03*
X152659993Y-113622393D03*
%TD*%
%TO.C,R52*%
X125615607Y-122435993D03*
X125615607Y-120835993D03*
%TD*%
D42*
%TO.C,C47*%
X125882207Y-124150593D03*
X124282207Y-124150593D03*
%TD*%
D18*
%TO.C,C21*%
X165797194Y-130766807D03*
X165797194Y-129166807D03*
%TD*%
D19*
%TO.C,R83*%
X40501000Y-93345000D03*
X39001000Y-93345000D03*
%TD*%
D13*
%TO.C,R82*%
X45196607Y-88260393D03*
X43596607Y-88260393D03*
%TD*%
%TO.C,R18*%
X197596608Y-88260393D03*
X195996608Y-88260393D03*
%TD*%
D18*
%TO.C,C8*%
X172551994Y-130754207D03*
X172551994Y-129154207D03*
%TD*%
D13*
%TO.C,R73*%
X83296607Y-88260393D03*
X81696607Y-88260393D03*
%TD*%
D43*
%TO.C,IC6*%
X45034200Y-110794800D03*
X46304200Y-110794800D03*
X47574200Y-110794800D03*
X48844200Y-110794800D03*
X50114200Y-110794800D03*
X51384200Y-110794800D03*
X52654200Y-110794800D03*
X53924200Y-110794800D03*
X55194200Y-110794800D03*
X56464200Y-110794800D03*
X57734200Y-110794800D03*
X59004200Y-110794800D03*
X60274200Y-110794800D03*
X61544200Y-110794800D03*
D44*
X62794200Y-112559800D03*
X62794200Y-113829800D03*
X62794200Y-115099800D03*
X62794200Y-116369800D03*
X62794200Y-117639800D03*
X62794200Y-118909800D03*
X62794200Y-120179800D03*
X62794200Y-121449800D03*
X62794200Y-122719800D03*
X62794200Y-123989800D03*
X62794200Y-125259800D03*
X62794200Y-126529800D03*
D43*
X61544200Y-128294800D03*
X60274200Y-128294800D03*
X59004200Y-128294800D03*
X57734200Y-128294800D03*
X56464200Y-128294800D03*
X55194200Y-128294800D03*
X53924200Y-128294800D03*
X52654200Y-128294800D03*
X51384200Y-128294800D03*
X50114200Y-128294800D03*
X48844200Y-128294800D03*
X47574200Y-128294800D03*
X46304200Y-128294800D03*
X45034200Y-128294800D03*
D45*
X52754200Y-118044800D03*
X51354200Y-118044800D03*
X51354200Y-116644800D03*
X52754200Y-116644800D03*
X54154200Y-116644800D03*
X54154200Y-118044800D03*
X54154200Y-119444800D03*
X52754200Y-119444800D03*
X51354200Y-119444800D03*
%TD*%
D22*
%TO.C,R60*%
X137652607Y-89772393D03*
X137652607Y-88272393D03*
%TD*%
%TO.C,R31*%
X163052607Y-89772393D03*
X163052607Y-88272393D03*
%TD*%
%TO.C,R81*%
X48752607Y-89760393D03*
X48752607Y-88260393D03*
%TD*%
D46*
%TO.C,U4*%
X222170000Y-121405200D03*
X220900000Y-121405200D03*
X219630000Y-121405200D03*
X218360000Y-121405200D03*
X218360000Y-116105200D03*
X219630000Y-116105200D03*
X220900000Y-116105200D03*
X222170000Y-116105200D03*
D47*
X220265000Y-118755200D03*
%TD*%
D38*
%TO.C,C20*%
X172241807Y-117800593D03*
X170581807Y-117800593D03*
%TD*%
D48*
%TO.C,J8*%
X100822607Y-57404000D03*
D49*
X105902607Y-57404000D03*
X110982607Y-57404000D03*
X116062607Y-57404000D03*
X121142607Y-57404000D03*
X126222607Y-57404000D03*
X131302607Y-57404000D03*
X136382607Y-57404000D03*
X141462607Y-57404000D03*
X146542607Y-57404000D03*
X151622607Y-57404000D03*
X156702607Y-57404000D03*
X161782607Y-57404000D03*
X166862607Y-57404000D03*
X171942607Y-57404000D03*
X177022607Y-57404000D03*
X182102607Y-57404000D03*
%TD*%
D22*
%TO.C,R89*%
X170445395Y-132108607D03*
X170445395Y-133608607D03*
%TD*%
D18*
%TO.C,C22*%
X163130193Y-130754207D03*
X163130193Y-129154207D03*
%TD*%
D50*
%TO.C,C23*%
X229616000Y-118201600D03*
X229616000Y-127101600D03*
%TD*%
D22*
%TO.C,R14*%
X226552607Y-89784393D03*
X226552607Y-88284393D03*
%TD*%
D51*
%TO.C,R2*%
X154921993Y-110104393D03*
X151921993Y-110104393D03*
%TD*%
D22*
%TO.C,R93*%
X166889393Y-132124408D03*
X166889393Y-133624408D03*
%TD*%
D17*
%TO.C,R38*%
X122110407Y-120759793D03*
X122110407Y-122359793D03*
%TD*%
D13*
%TO.C,R55*%
X159496607Y-88260393D03*
X157896607Y-88260393D03*
%TD*%
%TO.C,R64*%
X121472607Y-88260393D03*
X119872607Y-88260393D03*
%TD*%
D22*
%TO.C,R26*%
X239252607Y-89772393D03*
X239252607Y-88272393D03*
%TD*%
D13*
%TO.C,R67*%
X108734607Y-88260393D03*
X107134607Y-88260393D03*
%TD*%
D52*
%TO.C,J5*%
X110930793Y-139147193D03*
X141509393Y-139175993D03*
D32*
X140239393Y-128507993D03*
X137699393Y-128507993D03*
X135159393Y-128507993D03*
X132619393Y-128507993D03*
X130079393Y-128507993D03*
X127539393Y-128507993D03*
X124999393Y-128507993D03*
X122459393Y-128507993D03*
X119919393Y-128507993D03*
X117379393Y-128507993D03*
X114839393Y-128507993D03*
X112299393Y-128507993D03*
%TD*%
D20*
%TO.C,S3*%
X66217800Y-129430000D03*
X72417800Y-129430000D03*
X66217800Y-125730000D03*
X72417800Y-125730000D03*
%TD*%
D53*
%TO.C,C27*%
X206756000Y-126460600D03*
X206756000Y-119360600D03*
%TD*%
D22*
%TO.C,R78*%
X61452607Y-89760393D03*
X61452607Y-88260393D03*
%TD*%
%TO.C,R94*%
X163333394Y-132112407D03*
X163333394Y-133612407D03*
%TD*%
D23*
%TO.C,C26*%
X221412000Y-113436400D03*
X223012000Y-113436400D03*
%TD*%
D19*
%TO.C,R6*%
X128802607Y-118527193D03*
X130302607Y-118527193D03*
%TD*%
D16*
%TO.C,D4*%
X156647993Y-107437393D03*
X153497993Y-107437393D03*
%TD*%
D13*
%TO.C,R40*%
X171627607Y-124455393D03*
X170027607Y-124455393D03*
%TD*%
D54*
%TO.C,J9*%
X91825600Y-131279800D03*
X91175600Y-131279800D03*
X90525600Y-131279800D03*
X89875600Y-131279800D03*
X89225600Y-131279800D03*
D55*
X94025600Y-133979800D03*
D56*
X93025600Y-131279800D03*
X88025600Y-131279800D03*
D55*
X87025600Y-133979800D03*
%TD*%
D57*
%TO.C,C5*%
X146103993Y-111628393D03*
X144483993Y-111628393D03*
%TD*%
D22*
%TO.C,R20*%
X188452607Y-89784393D03*
X188452607Y-88284393D03*
%TD*%
D25*
%TO.C,D10*%
X137800993Y-124755793D03*
X137800993Y-122455793D03*
%TD*%
D18*
%TO.C,C18*%
X167143393Y-130754207D03*
X167143393Y-129154207D03*
%TD*%
D13*
%TO.C,R105*%
X216369800Y-119710200D03*
X214769800Y-119710200D03*
%TD*%
D18*
%TO.C,C19*%
X164450994Y-130754207D03*
X164450994Y-129154207D03*
%TD*%
D13*
%TO.C,R70*%
X96072606Y-88260393D03*
X94472606Y-88260393D03*
%TD*%
D22*
%TO.C,R57*%
X150352607Y-89784393D03*
X150352607Y-88284393D03*
%TD*%
D58*
%TO.C,U3*%
X86842600Y-122659600D03*
X88112600Y-122659600D03*
X89382600Y-122659600D03*
X90652600Y-122659600D03*
X91922600Y-122659600D03*
X93192600Y-122659600D03*
X94462600Y-122659600D03*
X95732600Y-122659600D03*
X95732600Y-127609600D03*
X94462600Y-127609600D03*
X93192600Y-127609600D03*
X91922600Y-127609600D03*
X90652600Y-127609600D03*
X89382600Y-127609600D03*
X88112600Y-127609600D03*
X86842600Y-127609600D03*
%TD*%
D22*
%TO.C,R9*%
X152659993Y-116720393D03*
X152659993Y-118220393D03*
%TD*%
D33*
%TO.C,J10*%
X96977200Y-134650400D03*
D34*
X96977200Y-132110400D03*
%TD*%
G36*
X213557039Y-69615685D02*
G01*
X213602794Y-69668489D01*
X213614000Y-69720000D01*
X213614000Y-83188000D01*
X213594315Y-83255039D01*
X213541511Y-83300794D01*
X213490000Y-83312000D01*
X206299362Y-83312000D01*
X206232323Y-83292315D01*
X206211681Y-83275681D01*
X205522319Y-82586319D01*
X205488834Y-82524996D01*
X205486000Y-82498638D01*
X205486000Y-69720000D01*
X205505685Y-69652961D01*
X205558489Y-69607206D01*
X205610000Y-69596000D01*
X213490000Y-69596000D01*
X213557039Y-69615685D01*
G37*
G36*
X48711039Y-69869685D02*
G01*
X48756794Y-69922489D01*
X48768000Y-69974000D01*
X48768000Y-82680000D01*
X48748315Y-82747039D01*
X48695511Y-82792794D01*
X48644000Y-82804000D01*
X43050000Y-82804000D01*
X42982961Y-82784315D01*
X42937206Y-82731511D01*
X42926000Y-82680000D01*
X42926000Y-69974000D01*
X42945685Y-69906961D01*
X42998489Y-69861206D01*
X43050000Y-69850000D01*
X48644000Y-69850000D01*
X48711039Y-69869685D01*
G37*
G36*
X124887334Y-71303180D02*
G01*
X124943267Y-71345052D01*
X124967684Y-71410516D01*
X124968000Y-71419362D01*
X124968000Y-82934000D01*
X124948315Y-83001039D01*
X124895511Y-83046794D01*
X124844000Y-83058000D01*
X119939362Y-83058000D01*
X119872323Y-83038315D01*
X119851681Y-83021681D01*
X119162319Y-82332319D01*
X119128834Y-82270996D01*
X119126000Y-82244638D01*
X119126000Y-77013362D01*
X119145685Y-76946323D01*
X119162319Y-76925681D01*
X124756319Y-71331681D01*
X124817642Y-71298196D01*
X124887334Y-71303180D01*
G37*
G36*
X99511039Y-69869685D02*
G01*
X99556794Y-69922489D01*
X99568000Y-69974000D01*
X99568000Y-82934000D01*
X99548315Y-83001039D01*
X99495511Y-83046794D01*
X99444000Y-83058000D01*
X94539362Y-83058000D01*
X94472323Y-83038315D01*
X94451681Y-83021681D01*
X93254319Y-81824319D01*
X93220834Y-81762996D01*
X93218000Y-81736638D01*
X93218000Y-71171362D01*
X93237685Y-71104323D01*
X93254319Y-71083681D01*
X94451681Y-69886319D01*
X94513004Y-69852834D01*
X94539362Y-69850000D01*
X99444000Y-69850000D01*
X99511039Y-69869685D01*
G37*
G36*
X86811039Y-69869685D02*
G01*
X86856794Y-69922489D01*
X86868000Y-69974000D01*
X86868000Y-83188000D01*
X86848315Y-83255039D01*
X86795511Y-83300794D01*
X86744000Y-83312000D01*
X81585362Y-83312000D01*
X81518323Y-83292315D01*
X81497681Y-83275681D01*
X80808319Y-82586319D01*
X80774834Y-82524996D01*
X80772000Y-82498638D01*
X80772000Y-70409361D01*
X80791685Y-70342322D01*
X80808319Y-70321680D01*
X81243681Y-69886319D01*
X81305004Y-69852834D01*
X81331362Y-69850000D01*
X86744000Y-69850000D01*
X86811039Y-69869685D01*
G37*
G36*
X74111039Y-69869685D02*
G01*
X74156794Y-69922489D01*
X74168000Y-69974000D01*
X74168000Y-83188000D01*
X74148315Y-83255039D01*
X74095511Y-83300794D01*
X74044000Y-83312000D01*
X67615362Y-83312000D01*
X67548323Y-83292315D01*
X67527681Y-83275681D01*
X66076319Y-81824319D01*
X66042834Y-81762996D01*
X66040000Y-81736638D01*
X66040000Y-69974000D01*
X66059685Y-69906961D01*
X66112489Y-69861206D01*
X66164000Y-69850000D01*
X74044000Y-69850000D01*
X74111039Y-69869685D01*
G37*
G36*
X239211039Y-69615685D02*
G01*
X239256794Y-69668489D01*
X239268000Y-69720000D01*
X239268000Y-82934000D01*
X239248315Y-83001039D01*
X239195511Y-83046794D01*
X239144000Y-83058000D01*
X233985362Y-83058000D01*
X233918323Y-83038315D01*
X233897681Y-83021681D01*
X231176319Y-80300319D01*
X231142834Y-80238996D01*
X231140000Y-80212638D01*
X231140000Y-69720000D01*
X231159685Y-69652961D01*
X231212489Y-69607206D01*
X231264000Y-69596000D01*
X239144000Y-69596000D01*
X239211039Y-69615685D01*
G37*
G36*
X173497677Y-69615685D02*
G01*
X173518319Y-69632319D01*
X175731681Y-71845681D01*
X175765166Y-71907004D01*
X175768000Y-71933362D01*
X175768000Y-83188000D01*
X175748315Y-83255039D01*
X175695511Y-83300794D01*
X175644000Y-83312000D01*
X167945362Y-83312000D01*
X167878323Y-83292315D01*
X167857681Y-83275681D01*
X167676319Y-83094319D01*
X167642834Y-83032996D01*
X167640000Y-83006638D01*
X167640000Y-69720000D01*
X167659685Y-69652961D01*
X167712489Y-69607206D01*
X167764000Y-69596000D01*
X173430638Y-69596000D01*
X173497677Y-69615685D01*
G37*
G36*
X226511039Y-69615685D02*
G01*
X226556794Y-69668489D01*
X226568000Y-69720000D01*
X226568000Y-83188000D01*
X226548315Y-83255039D01*
X226495511Y-83300794D01*
X226444000Y-83312000D01*
X221285362Y-83312000D01*
X221218323Y-83292315D01*
X221197681Y-83275681D01*
X218476319Y-80554319D01*
X218442834Y-80492996D01*
X218440000Y-80466638D01*
X218440000Y-69720000D01*
X218459685Y-69652961D01*
X218512489Y-69607206D01*
X218564000Y-69596000D01*
X226444000Y-69596000D01*
X226511039Y-69615685D01*
G37*
G36*
X112211039Y-72155685D02*
G01*
X112256794Y-72208489D01*
X112268000Y-72260000D01*
X112268000Y-83188000D01*
X112248315Y-83255039D01*
X112195511Y-83300794D01*
X112144000Y-83312000D01*
X107239362Y-83312000D01*
X107172323Y-83292315D01*
X107151681Y-83275681D01*
X106462319Y-82586319D01*
X106428834Y-82524996D01*
X106426000Y-82498638D01*
X106426000Y-72260000D01*
X106445685Y-72192961D01*
X106498489Y-72147206D01*
X106550000Y-72136000D01*
X112144000Y-72136000D01*
X112211039Y-72155685D01*
G37*
G36*
X159273677Y-69615685D02*
G01*
X159294319Y-69632319D01*
X162777681Y-73115681D01*
X162811166Y-73177004D01*
X162814000Y-73203362D01*
X162814000Y-83188000D01*
X162794315Y-83255039D01*
X162741511Y-83300794D01*
X162690000Y-83312000D01*
X155499362Y-83312000D01*
X155432323Y-83292315D01*
X155411681Y-83275681D01*
X154722319Y-82586318D01*
X154688834Y-82524995D01*
X154686000Y-82498637D01*
X154686000Y-69720000D01*
X154705685Y-69652961D01*
X154758489Y-69607206D01*
X154810000Y-69596000D01*
X159206638Y-69596000D01*
X159273677Y-69615685D01*
G37*
G36*
X137611039Y-69869685D02*
G01*
X137656794Y-69922489D01*
X137668000Y-69974000D01*
X137668000Y-83188000D01*
X137648315Y-83255039D01*
X137595511Y-83300794D01*
X137544000Y-83312000D01*
X131369362Y-83312000D01*
X131302323Y-83292315D01*
X131281681Y-83275681D01*
X130592319Y-82586318D01*
X130558834Y-82524995D01*
X130556000Y-82498637D01*
X130555999Y-71679362D01*
X130575684Y-71612323D01*
X130592318Y-71591681D01*
X132297681Y-69886319D01*
X132359004Y-69852834D01*
X132385362Y-69850000D01*
X137544000Y-69850000D01*
X137611039Y-69869685D01*
G37*
G36*
X186197677Y-69615685D02*
G01*
X186218319Y-69632319D01*
X188177681Y-71591681D01*
X188211166Y-71653004D01*
X188214000Y-71679362D01*
X188214000Y-83188000D01*
X188194315Y-83255039D01*
X188141511Y-83300794D01*
X188090000Y-83312000D01*
X180645362Y-83312000D01*
X180578323Y-83292315D01*
X180557681Y-83275681D01*
X180122319Y-82840319D01*
X180088834Y-82778996D01*
X180086000Y-82752638D01*
X180086000Y-69720000D01*
X180105685Y-69652961D01*
X180158489Y-69607206D01*
X180210000Y-69596000D01*
X186130638Y-69596000D01*
X186197677Y-69615685D01*
G37*
G36*
X61411039Y-69869685D02*
G01*
X61456794Y-69922489D01*
X61468000Y-69974000D01*
X61468000Y-82934000D01*
X61448315Y-83001039D01*
X61395511Y-83046794D01*
X61344000Y-83058000D01*
X53464000Y-83058000D01*
X53396961Y-83038315D01*
X53351206Y-82985511D01*
X53340000Y-82934000D01*
X53340000Y-69974000D01*
X53359685Y-69906961D01*
X53412489Y-69861206D01*
X53464000Y-69850000D01*
X61344000Y-69850000D01*
X61411039Y-69869685D01*
G37*
G36*
X201111039Y-69615685D02*
G01*
X201156794Y-69668489D01*
X201168000Y-69720000D01*
X201168000Y-82934000D01*
X201148315Y-83001039D01*
X201095511Y-83046794D01*
X201044000Y-83058000D01*
X193345362Y-83058000D01*
X193278323Y-83038315D01*
X193257681Y-83021681D01*
X193076319Y-82840319D01*
X193042834Y-82778996D01*
X193040000Y-82752638D01*
X193040000Y-69720000D01*
X193059685Y-69652961D01*
X193112489Y-69607206D01*
X193164000Y-69596000D01*
X201044000Y-69596000D01*
X201111039Y-69615685D01*
G37*
G36*
X149295039Y-69869685D02*
G01*
X149340794Y-69922489D01*
X149352000Y-69974000D01*
X149352000Y-82934000D01*
X149332315Y-83001039D01*
X149279511Y-83046794D01*
X149228000Y-83058000D01*
X144323362Y-83058000D01*
X144256323Y-83038315D01*
X144235681Y-83021681D01*
X143800319Y-82586319D01*
X143766834Y-82524996D01*
X143764000Y-82498638D01*
X143764000Y-69974000D01*
X143783685Y-69906961D01*
X143836489Y-69861206D01*
X143888000Y-69850000D01*
X149228000Y-69850000D01*
X149295039Y-69869685D01*
G37*
M02*
